ply
format ascii 1.0
comment VCGLIB generated
element vertex 56
property float x
property float y
property float z
element face 84
property list uchar int vertex_indices
end_header
48.164 255.844 -64.892 
51.096 249.057 -77.943 
107.507 0.614834 81.1778 
93.098 -3.39412 80.0264 
96.0295 -10.1818 66.9753 
33.756 251.835 -66.043 
36.687 245.048 -79.095 
110.438 -6.17286 68.1266 
15.839 185.813 -1.14601 
155.637 -21.4468 -1.146 
162.682 -16.6952 -24.658 
10.991 182.543 -20.272 
150.789 -24.7166 -20.272 
27.731 193.834 -5.53201 
167.529 -13.4254 -5.532 
22.883 190.564 -24.658 
164.166 -46.7946 -84.188 
138.667 -57.1299 -93.832 
7.43402 204.219 -26.942 
160.106 -45.1609 -98.535 
28.872 216.188 -31.645 
11.493 202.586 -12.595 
142.727 -58.7636 -79.485 
32.932 214.555 -17.298 
55.2733 237.398 -45.777 
-152.218 -12.9286 -68.875 
42.282 243.79 -25.396 
-140.225 -21.9183 -69.45 
43.279 246.388 -45.201 
-151.221 -10.33 -88.68 
54.2758 234.8 -25.971 
-139.227 -19.3197 -89.256 
-55.467 -30.644 -132.629 
-66.671 -30.4495 -122.658 
-81.631 -19.8832 -139.674 
5.30702 251.977 -47.294 
16.511 251.782 -57.266 
-70.427 -20.0777 -149.645 
20.268 241.41 -30.278 
31.472 241.216 -40.25 
30.112 194.177 -72.081 
-61.21 -1.25697 74.1718 
-47.193 -6.07029 76.4916 
-61.925 -10.7138 58.8729 
30.827 203.634 -56.782 
-47.909 -15.5271 61.1927 
44.843 198.821 -54.462 
44.128 189.364 -69.761 
-85.79 -5.28201 82.0075 
-106.121 0.452339 73.7751 
11.543 178.283 -57.833 
21.632 168.189 -62.451 
-95.88 4.81131 86.625 
1.30202 173.923 -70.683 
-96.031 -9.64098 69.1576 
11.391 163.83 -75.301 
3 0 1 6 
3 0 6 5 
3 7 2 3 
3 7 3 4 
3 5 3 0 
3 3 2 0 
3 6 4 5 
3 4 3 5 
3 1 7 6 
3 7 4 6 
3 0 2 1 
3 2 7 1 
3 13 15 11 
3 13 11 8 
3 10 14 9 
3 10 9 12 
3 8 9 13 
3 9 14 13 
3 11 12 8 
3 12 9 8 
3 15 10 11 
3 10 12 11 
3 13 14 15 
3 14 10 15 
3 21 23 20 
3 21 20 18 
3 16 22 17 
3 16 17 19 
3 18 17 21 
3 17 22 21 
3 20 19 18 
3 19 17 18 
3 23 16 20 
3 16 19 20 
3 21 22 23 
3 22 16 23 
3 30 24 28 
3 30 28 26 
3 31 27 25 
3 31 25 29 
3 26 25 30 
3 25 27 30 
3 28 29 26 
3 29 25 26 
3 24 31 28 
3 31 29 28 
3 30 27 24 
3 27 31 24 
3 38 39 36 
3 38 36 35 
3 32 33 34 
3 32 34 37 
3 35 34 38 
3 34 33 38 
3 36 37 35 
3 37 34 35 
3 39 32 36 
3 32 37 36 
3 38 33 39 
3 33 32 39 
3 46 47 40 
3 46 40 44 
3 45 42 41 
3 45 41 43 
3 44 41 46 
3 41 42 46 
3 40 43 44 
3 43 41 44 
3 47 45 40 
3 45 43 40 
3 46 42 47 
3 42 45 47 
3 51 55 53 
3 51 53 50 
3 54 48 52 
3 54 52 49 
3 50 52 51 
3 52 48 51 
3 53 49 50 
3 49 52 50 
3 55 54 53 
3 54 49 53 
3 51 48 55 
3 48 54 55 
