ply
format ascii 1.0
comment VCGLIB generated
element vertex 26
property float x
property float y
property float z
property float nx
property float ny
property float nz
element face 12
property list uchar int vertex_indices
end_header
0.5 0.5 0.5 0 -1.5708 0 
0.5 0.5 -0.5 0 -1.5708 0 
-0.5 0.5 -0.5 0 -1.5708 0 
-0.5 0.5 0.5 0 -1.5708 0 
-0.5 -0.5 -0.5 1.5708 0 0 
-0.5 -0.5 0.5 1.5708 0 0 
-0.5 0.5 0.5 1.5708 0 0 
-0.5 0.5 -0.5 1.5708 0 0 
0.5 -0.5 -0.5 0 1.5708 0 
0.5 -0.5 0.5 0 1.5708 0 
-0.5 -0.5 -0.5 0 1.5708 0 
-0.5 -0.5 0.5 0 1.5708 0 
0.5 0.5 -0.5 -1.5708 0 0 
0.5 0.5 0.5 -0.785398 0 0 
0.5 -0.5 -0.5 -0.785398 0 0 
0.5 0.5 0.5 -0.785398 0 0 
0.5 -0.5 0.5 -1.5708 0 0 
0.5 -0.5 -0.5 -0.785398 0 0 
0.5 0.5 0.5 0 0 -1.5708 
-0.5 0.5 0.5 0 0 -1.5708 
0.5 -0.5 0.5 0 0 -1.5708 
-0.5 -0.5 0.5 0 0 -1.5708 
0.5 0.5 -0.5 0 0 1.5708 
0.5 -0.5 -0.5 0 0 1.5708 
-0.5 -0.5 -0.5 0 0 1.5708 
-0.5 0.5 -0.5 0 0 1.5708 
3 1 0 2 
3 2 0 3 
3 5 4 6 
3 6 4 7 
3 9 8 10 
3 11 9 10 
3 13 12 14 
3 16 15 17 
3 19 18 20 
3 21 19 20 
3 23 22 24 
3 24 22 25 
