ply
format ascii 1.0
comment VCGLIB generated
element vertex 20
property float x
property float y
property float z
property float nx
property float ny
property float nz
element face 36
property list uchar int vertex_indices
end_header
-0.5 0 0.5 -1.84776 -1.70711 2.55487 
0.5 0 0.5 0 -3.56226 4.18585 
1.5 0 0.5 -2 -1.08979 1.63099 
-0.5 -4.37114e-008 -0.5 -2.92388 -2.61732 1.14407e-007 
0.5 -4.37114e-008 -0.5 -2 -3.70711 2.70711 
1.5 -4.37114e-008 -0.5 -1 -1.70711 1.70711 
-0.5 -8.74228e-008 -1.5 -1 -1 2 
0.5 -8.74228e-008 -1.5 -1 -2 1 
-0.5 1 0.5 -1.63099 1.70711 0.923879 
0.5 1 0.5 0 1.85195 2.77164 
1.5 1 0.5 -1 0.234633 1.84776 
-0.5 1 -0.5 -5.53141 1.77787 2 
0.5 1 -0.5 -3.70711 2.70711 2 
1.5 1 -0.5 -2 2 2 
-0.5 1 -1.5 -2.98827 0.152697 3 
0.5 1 -1.5 -3 1.31134e-007 3 
-0.5 3 -0.5 -1.8827 1.59991 1 
0.5 3 -0.5 -1 1 2 
-0.5 3 -1.5 -2.87097 0.752607 1 
0.5 3 -1.5 -2.89443 1.44721 2 
3 0 3 4 
3 0 4 1 
3 1 4 5 
3 1 5 2 
3 3 6 7 
3 3 7 4 
3 8 9 12 
3 8 12 11 
3 9 10 13 
3 9 13 12 
3 16 17 19 
3 16 19 18 
3 0 8 11 
3 0 11 3 
3 3 11 14 
3 3 14 6 
3 11 16 18 
3 11 18 14 
3 4 12 15 
3 4 15 7 
3 12 17 19 
3 12 19 15 
3 2 10 13 
3 2 13 5 
3 0 1 9 
3 0 9 8 
3 1 2 10 
3 1 10 9 
3 11 12 17 
3 11 17 16 
3 4 5 13 
3 4 13 12 
3 6 7 15 
3 6 15 14 
3 14 15 19 
3 14 19 18 
