ply
format ascii 1.0
comment VCGLIB generated
element vertex 519
property float x
property float y
property float z
element face 896
property list uchar int vertex_indices
end_header
-75.5496 17.5869 42.9853 
-75.4257 17.5869 43.0897 
-75.2496 17.5869 43.0605 
-75.0848 17.5869 42.948 
-75.016 17.5869 42.7721 
-75.0755 17.5869 42.5979 
-75.2397 17.5869 42.487 
-75.4386 17.5869 42.4594 
-75.5801 17.5869 42.5525 
-75.608 17.5869 42.7665 
-76.1592 16.6321 42.9282 
-76.0394 16.9503 42.9569 
-76.1136 16.9503 42.7214 
-76.2381 16.6321 42.6683 
-75.9525 16.6321 43.0853 
-75.8451 16.9503 43.1025 
-75.6858 16.6321 43.09 
-75.605 16.9503 43.1025 
-75.4723 16.6321 42.9298 
-75.4108 16.9503 42.9569 
-75.3366 16.9503 42.7214 
-75.3893 16.6321 42.6699 
-75.4108 16.9503 42.4859 
-75.4721 16.6321 42.4063 
-75.605 16.9503 42.3404 
-75.6792 16.6321 42.2489 
-75.8452 16.9503 42.3404 
-75.9413 16.6321 42.2486 
-76.0394 16.9503 42.4859 
-76.1547 16.6321 42.4088 
-75.8429 17.2686 42.973 
-75.9081 17.2686 42.7555 
-76.276 16.3138 42.5846 
-76.1903 16.3138 42.8663 
-75.6762 17.2686 43.0997 
-75.9878 16.3138 43.0447 
-75.4605 17.2686 43.0995 
-75.6852 16.3138 43.0737 
-75.2894 17.2686 42.9694 
-75.4233 16.3138 42.8968 
-75.2238 17.2686 42.7582 
-75.3698 16.3138 42.58 
-75.289 17.2686 42.5465 
-75.4523 16.3138 42.3232 
-75.4599 17.2686 42.4208 
-75.659 16.3138 42.1524 
-75.6757 17.2686 42.4153 
-75.9503 16.3138 42.1223 
-75.8428 17.2686 42.544 
-76.186 16.3138 42.2989 
-76.3504 16.6118 43.2628 
-76.6929 16.7523 43.4893 
-76.4745 16.7523 43.659 
-75.8428 16.6109 43.4301 
-75.995 16.7523 43.8293 
-75.7216 16.7523 43.8342 
-75.4215 16.5757 43.2625 
-75.2366 16.7523 43.6813 
-75.0126 16.7523 43.5195 
-75.0963 16.5756 42.8741 
-74.7074 16.7523 43.1018 
-74.6184 16.7523 42.8353 
-75.0598 16.5633 42.3342 
-74.6096 16.7523 42.3123 
-74.6895 16.7523 42.0427 
-75.2782 16.6069 41.8803 
-74.9804 16.7523 41.6142 
-75.1987 16.7523 41.4445 
-75.8204 16.6108 41.6466 
-75.6783 16.7523 41.2742 
-75.9517 16.7523 41.2693 
-76.3339 16.6067 41.8153 
-76.4367 16.7523 41.4222 
-76.6606 16.7523 41.584 
-76.6587 16.6061 42.259 
-76.9659 16.7523 42.0017 
-77.0549 16.7523 42.2682 
-76.6681 16.6062 42.815 
-77.0637 16.7523 42.7912 
-76.9838 16.7523 43.0608 
-79.0569 16.0463 45.1876 
-77.406 16.0463 46.4705 
-77.0816 16.6698 45.4847 
-78.2274 16.6698 44.5943 
-76.9395 16.0463 46.6361 
-74.8727 16.0463 46.6733 
-75.1721 16.6698 45.6791 
-76.6066 16.6698 45.6533 
-74.4009 16.0463 46.5246 
-72.7076 16.0463 45.3018 
-73.5165 16.6698 44.6791 
-74.6917 16.6698 45.5277 
-72.4107 16.0463 44.8955 
-71.7376 16.0463 42.8799 
-72.747 16.6698 42.8664 
-73.2141 16.6698 44.2654 
-71.729 16.0463 42.3713 
-72.3334 16.0463 40.3327 
-73.1577 16.6698 40.9336 
-72.7383 16.6698 42.3485 
-72.6164 16.0463 39.9159 
-74.2673 16.0463 38.633 
-74.5917 16.6698 39.6188 
-73.4459 16.6698 40.5092 
-74.7337 16.0463 38.4674 
-76.8006 16.0463 38.4302 
-76.5012 16.6698 39.4244 
-75.0667 16.6698 39.4502 
-77.2724 16.0463 38.5789 
-78.9657 16.0463 39.8017 
-78.1568 16.6698 40.4244 
-76.9816 16.6698 39.5758 
-79.2626 16.0463 40.208 
-79.9356 16.0463 42.2236 
-78.9262 16.6698 42.2371 
-78.4591 16.6698 40.8381 
-79.9442 16.0463 42.7322 
-79.3399 16.0463 44.7708 
-78.5155 16.6698 44.1699 
-78.935 16.6698 42.755 
-79.7692 13.7462 45.7284 
-77.7138 13.7462 47.3257 
-77.607 15.0251 47.0515 
-79.5431 15.0251 45.547 
-76.3594 14.7828 46.9452 
-76.4686 13.8392 47.1536 
-75.248 14.0153 47.1363 
-73.7673 13.9443 46.6598 
-72.7585 13.866 45.9527 
-72.8887 14.7623 45.8027 
-71.6918 13.7462 45.4271 
-70.8538 13.7462 42.9176 
-71.1397 15.0251 42.8976 
-71.9289 15.0251 45.2613 
-70.8445 13.7462 42.3655 
-71.597 13.7462 39.8274 
-71.8396 15.0251 39.9845 
-71.1308 15.0251 42.3752 
-71.9041 13.7462 39.3751 
-73.9595 13.7462 37.7778 
-74.0663 15.0251 38.052 
-72.1302 15.0251 39.5565 
-74.4657 13.7462 37.5981 
-77.0391 13.7462 37.5518 
-76.9692 15.0251 37.8382 
-74.5453 15.0251 37.8819 
-77.5511 13.7462 37.7132 
-79.6593 13.7462 39.2355 
-79.4395 15.0251 39.4249 
-77.4536 15.0251 37.991 
-79.9815 13.7462 39.6764 
-80.8195 13.7462 42.1859 
-80.5336 15.0251 42.2059 
-79.7444 15.0251 39.8422 
-80.8288 13.7462 42.738 
-80.0763 13.7462 45.2761 
-79.8337 15.0251 45.119 
-80.5425 15.0251 42.7283 
-77.4725 16.9055 44.0522 
-76.7844 16.9055 44.5869 
-76.3048 16.9055 44.7572 
-75.4434 16.9055 44.7727 
-74.9583 16.9055 44.6198 
-74.2526 16.9055 44.1102 
-73.9473 16.9055 43.6924 
-73.6668 16.9055 42.8524 
-73.658 16.9055 42.3294 
-73.9099 16.9055 41.4797 
-74.2008 16.9055 41.0513 
-74.8889 16.9055 40.5166 
-75.3684 16.9055 40.3463 
-76.2299 16.9055 40.3308 
-76.715 16.9055 40.4837 
-77.4207 16.9055 40.9933 
-77.726 16.9055 41.4111 
-78.0064 16.9055 42.2511 
-78.0153 16.9055 42.7741 
-77.7634 16.9055 43.6238 
-77.128 15.0251 47.2216 
-74.7041 15.0251 47.2653 
-74.2197 15.0251 47.1125 
-72.2338 15.0251 45.6786 
-76.9048 16.631 43.323 
-76.1673 16.3868 42.8098 
-76.5641 16.7795 44.7304 
-76.8537 16.555 45.5978 
-75.1834 16.7795 44.7552 
-74.9233 16.555 45.6326 
-74.0522 16.7795 43.9384 
-73.3417 16.555 44.4906 
-73.6026 16.7795 42.5919 
-72.7131 16.555 42.608 
-74.0064 16.7795 41.2302 
-73.2777 16.555 40.704 
-75.1092 16.7795 40.3731 
-74.8196 16.555 39.5057 
-76.4899 16.7795 40.3483 
-76.75 16.555 39.4709 
-77.6211 16.7795 41.1651 
-78.3316 16.555 40.6129 
-78.0707 16.7795 42.5116 
-78.9601 16.555 42.4955 
-79.2063 15.9577 44.9849 
-78.3956 16.555 44.3995 
-77.1759 15.9577 46.5628 
-77.3784 14.9773 47.1692 
-74.6339 15.9577 46.6085 
-74.4521 14.9773 47.2219 
-72.5514 15.9577 45.1048 
-72.0546 14.9773 45.4907 
-71.7237 15.9577 42.6258 
-71.1018 14.9773 42.637 
-72.4669 15.9577 40.1186 
-71.9575 14.9773 39.7507 
-74.4974 15.9577 38.5407 
-74.2949 14.9773 37.9343 
-77.0394 15.9577 38.495 
-77.2212 14.9773 37.8816 
-79.1219 15.9577 39.9987 
-79.6186 14.9773 39.6128 
-79.9496 15.9577 42.4777 
-80.5715 14.9773 42.4665 
-79.7158 14.9773 45.3528 
-79.933 13.7462 45.5097 
-77.6669 16.7795 43.8733 
-75.9585 16.3868 42.9754 
-76.2612 16.631 43.8232 
-75.7146 16.3868 42.9997 
-75.4554 16.631 43.8377 
-75.4716 16.3868 42.8568 
-74.7953 16.631 43.361 
-75.3648 16.3868 42.5811 
-74.5329 16.631 42.5752 
-75.4866 16.3868 42.3132 
-74.7685 16.631 41.7805 
-75.6802 16.3868 42.1645 
-75.4121 16.631 41.2803 
-75.9234 16.3868 42.1483 
-76.2179 16.631 41.2658 
-76.1584 16.3868 42.2841 
-76.878 16.631 41.7425 
-76.2456 16.3868 42.5455 
-77.1404 16.631 42.5283 
-77.4648 13.7462 47.4278 
-74.6342 13.7462 47.5518 
-74.3746 13.7462 47.4834 
-72.0139 13.7462 45.868 
-71.8428 13.7462 45.6553 
-70.8366 13.7462 42.6417 
-71.7402 13.7462 39.5938 
-74.2086 13.7462 37.6757 
-77.2988 13.7462 37.6201 
-79.8304 13.7462 39.4482 
-80.8366 13.7462 42.4618 
-77.2075 13.7462 47.5054 
-74.1222 13.7462 47.3903 
-76.3664 10.8676 43.2767 
-76.4745 10.74 43.659 
-76.6929 10.74 43.4893 
-75.852 10.8676 43.4594 
-75.7216 10.74 43.8342 
-75.995 10.74 43.8293 
-75.3317 10.8676 43.2954 
-75.0126 10.74 43.5195 
-75.2366 10.74 43.6813 
-75.0043 10.8676 42.8473 
-74.6184 10.74 42.8353 
-74.7074 10.74 43.1018 
-74.9949 10.8676 42.2864 
-74.6895 10.74 42.0427 
-74.6096 10.74 42.3123 
-75.3069 10.8676 41.8268 
-75.1987 10.74 41.4445 
-74.9804 10.74 41.6142 
-75.8213 10.8676 41.6441 
-75.9517 10.74 41.2693 
-75.6783 10.74 41.2742 
-76.3415 10.8676 41.8082 
-76.6606 10.74 41.584 
-76.4367 10.74 41.4222 
-76.669 10.8676 42.2562 
-77.0549 10.74 42.2682 
-76.9659 10.74 42.0017 
-76.6784 10.8676 42.8171 
-76.9838 10.74 43.0608 
-77.0637 10.74 42.7912 
-79.0569 11.4461 45.1876 
-78.2274 10.8225 44.5943 
-77.0816 10.8225 45.4847 
-77.406 11.4461 46.4705 
-76.9395 11.4461 46.6361 
-76.6066 10.8225 45.6533 
-75.1721 10.8225 45.6791 
-74.8727 11.4461 46.6733 
-74.4009 11.4461 46.5246 
-74.6917 10.8225 45.5277 
-73.5165 10.8225 44.6791 
-72.7076 11.4461 45.3018 
-72.4107 11.4461 44.8955 
-73.2141 10.8225 44.2654 
-72.747 10.8225 42.8664 
-71.7376 11.4461 42.8799 
-71.729 11.4461 42.3713 
-72.7383 10.8225 42.3485 
-73.1577 10.8225 40.9336 
-72.3334 11.4461 40.3327 
-72.6164 11.4461 39.9159 
-73.4459 10.8225 40.5092 
-74.5917 10.8225 39.6188 
-74.2673 11.4461 38.633 
-74.7337 11.4461 38.4674 
-75.0667 10.8225 39.4502 
-76.5012 10.8225 39.4244 
-76.8006 11.4461 38.4302 
-77.2724 11.4461 38.5789 
-76.9816 10.8225 39.5758 
-78.1568 10.8225 40.4244 
-78.9657 11.4461 39.8017 
-79.2626 11.4461 40.208 
-78.4591 10.8225 40.8381 
-78.9262 10.8225 42.2371 
-79.9356 11.4461 42.2236 
-79.9442 11.4461 42.7322 
-78.935 10.8225 42.755 
-78.5155 10.8225 44.1699 
-79.3399 11.4461 44.7708 
-79.5431 12.4672 45.547 
-77.607 12.4672 47.0515 
-74.8133 12.8611 47.0263 
-74.846 13.1277 47.0799 
-76.9914 13.582 47.1444 
-76.2224 13.0719 47.0454 
-76.9608 13.2681 47.0733 
-72.3994 13.3374 45.6232 
-72.3428 13.5851 45.6612 
-74.1955 13.1422 46.8652 
-73.01 13.1208 46.0116 
-74.2583 12.8808 46.8556 
-71.9289 12.4672 45.2613 
-71.1397 12.4672 42.8976 
-71.1308 12.4672 42.3752 
-71.8396 12.4672 39.9845 
-72.1302 12.4672 39.5565 
-74.0663 12.4672 38.052 
-74.5453 12.4672 37.8819 
-76.9692 12.4672 37.8382 
-77.4536 12.4672 37.991 
-79.4395 12.4672 39.4249 
-79.7444 12.4672 39.8422 
-80.5336 12.4672 42.2059 
-80.5425 12.4672 42.7283 
-79.8337 12.4672 45.119 
-77.4725 10.5869 44.0522 
-76.7844 10.5869 44.5869 
-76.3048 10.5869 44.7572 
-75.4434 10.5869 44.7727 
-74.9583 10.5869 44.6198 
-74.2526 10.5869 44.1102 
-73.9473 10.5869 43.6924 
-73.6668 10.5869 42.8524 
-73.658 10.5869 42.3294 
-73.9099 10.5869 41.4797 
-74.2008 10.5869 41.0513 
-74.8889 10.5869 40.5166 
-75.3684 10.5869 40.3463 
-76.2299 10.5869 40.3308 
-76.715 10.5869 40.4837 
-77.4207 10.5869 40.9933 
-77.726 10.5869 41.4111 
-78.0064 10.5869 42.2511 
-78.0153 10.5869 42.7741 
-77.7634 10.5869 43.6238 
-77.128 12.4672 47.2216 
-74.7041 12.4672 47.2653 
-74.2197 12.4672 47.1125 
-72.2338 12.4672 45.6786 
-75.997 11.1495 43.0319 
-76.24 11.1495 42.843 
-76.329 11.1495 42.5429 
-76.2299 11.1495 42.2462 
-75.9806 11.1495 42.0661 
-75.6763 11.1495 42.0716 
-75.4333 11.1495 42.2605 
-75.3443 11.1495 42.5606 
-75.4434 11.1495 42.8573 
-75.6927 11.1495 43.0374 
-76.9048 10.8613 43.323 
-76.5641 10.7128 44.7304 
-76.8537 10.9373 45.5978 
-75.1834 10.7128 44.7552 
-74.9233 10.9373 45.6326 
-74.0522 10.7128 43.9384 
-73.3417 10.9373 44.4906 
-73.6026 10.7128 42.5919 
-72.7131 10.9373 42.608 
-74.0064 10.7128 41.2302 
-73.2777 10.9373 40.704 
-75.1092 10.7128 40.3731 
-74.8196 10.9373 39.5057 
-76.4899 10.7128 40.3483 
-76.75 10.9373 39.4709 
-77.6211 10.7128 41.1651 
-78.3316 10.9373 40.6129 
-78.0707 10.7128 42.5116 
-78.9601 10.9373 42.4955 
-79.2063 11.5346 44.9849 
-78.3956 10.9373 44.3995 
-77.1759 11.5346 46.5628 
-77.3784 12.5151 47.1692 
-74.6339 11.5346 46.6085 
-74.4771 12.3199 47.1024 
-72.5514 11.5346 45.1048 
-72.0546 12.5151 45.4907 
-71.7237 11.5346 42.6258 
-71.1018 12.5151 42.637 
-72.4669 11.5346 40.1186 
-71.9575 12.5151 39.7507 
-74.4974 11.5346 38.5407 
-74.2949 12.5151 37.9343 
-77.0394 11.5346 38.495 
-77.2212 12.5151 37.8816 
-79.1219 11.5346 39.9987 
-79.6186 12.5151 39.6128 
-79.9496 11.5346 42.4777 
-80.5715 12.5151 42.4665 
-79.7158 12.5151 45.3528 
-77.6669 10.7128 43.8733 
-76.2612 10.8613 43.8232 
-75.4554 10.8613 43.8377 
-74.7953 10.8613 43.361 
-74.5329 10.8613 42.5752 
-74.7685 10.8613 41.7805 
-75.4121 10.8613 41.2803 
-76.2179 10.8613 41.2658 
-76.878 10.8613 41.7425 
-77.1404 10.8613 42.5283 
-74.5608 12.5961 46.9074 
-74.4953 13.1094 47.0165 
-76.365 14.8458 47.2753 
-75.2536 14.0782 47.4665 
-76.4742 13.9022 47.4838 
-72.705 14.8252 46.0733 
-73.5836 14.0072 46.9303 
-72.5748 13.929 46.2232 
-76.8984 13.5186 47.4603 
-74.753 13.0643 47.3958 
-76.8677 13.2046 47.3892 
-76.7901 12.7449 46.9608 
-74.4678 12.5327 47.2233 
-74.7202 12.7977 47.3422 
-74.1652 12.8174 47.1715 
-72.4376 12.6573 45.8748 
-72.3063 13.2739 45.9391 
-72.2497 13.5217 45.9771 
-74.1024 13.0787 47.1811 
-74.4022 13.046 47.3324 
-72.5306 12.7208 45.5589 
-76.697 12.6815 47.2767 
-76.1293 13.0085 47.3613 
-72.917 13.0574 46.3275 
-75.8451 16.9503 43.1025 
-75.9525 16.6321 43.0853 
-75.5496 17.5869 42.9853 
-75.608 17.5869 42.7665 
-75.4257 17.5869 43.0897 
-75.2496 17.5869 43.0605 
-75.4257 17.5869 43.0897 
-75.6762 17.2686 43.0997 
-75.9878 16.3138 43.0447 
-75.0848 17.5869 42.948 
-75.016 17.5869 42.7721 
-75.0755 17.5869 42.5979 
-75.2397 17.5869 42.487 
-75.4386 17.5869 42.4594 
-75.5801 17.5869 42.5525 
-75.7146 16.3868 42.9997 
-75.4866 16.3868 42.3132 
-76.2456 16.3868 42.5455 
-75.1834 16.7795 44.7552 
-74.9233 16.555 45.6326 
-74.0064 16.7795 41.2302 
-73.2777 16.555 40.704 
-78.0707 16.7795 42.5116 
-78.9601 16.555 42.4955 
-72.4669 15.9577 40.1186 
-71.9575 14.9773 39.7507 
-79.9496 15.9577 42.4777 
-80.5715 14.9773 42.4665 
-75.4554 16.631 43.8377 
-74.7685 16.631 41.7805 
-77.1404 16.631 42.5283 
-71.7402 13.7462 39.5938 
-80.8366 13.7462 42.4618 
-76.24 11.1495 42.843 
-75.997 11.1495 43.0319 
-75.6927 11.1495 43.0374 
-75.4434 11.1495 42.8573 
-75.3443 11.1495 42.5606 
-75.4333 11.1495 42.2605 
-75.6763 11.1495 42.0716 
-75.9806 11.1495 42.0661 
-76.2299 11.1495 42.2462 
-76.329 11.1495 42.5429 
-75.6927 11.1495 43.0374 
-75.4333 11.1495 42.2605 
-76.329 11.1495 42.5429 
-74.9233 10.9373 45.6326 
-75.1834 10.7128 44.7552 
-73.2777 10.9373 40.704 
-74.0064 10.7128 41.2302 
-78.9601 10.9373 42.4955 
-78.0707 10.7128 42.5116 
-71.9575 12.5151 39.7507 
-72.4669 11.5346 40.1186 
-80.5715 12.5151 42.4665 
-79.9496 11.5346 42.4777 
-75.4554 10.8613 43.8377 
-74.7685 10.8613 41.7805 
-77.1404 10.8613 42.5283 
3 0 1 2 
3 2 3 4 
3 4 5 6 
3 2 4 6 
3 6 7 8 
3 2 6 8 
3 0 2 8 
3 0 8 9 
3 10 11 12 
3 12 13 10 
3 14 15 11 
3 11 10 14 
3 16 17 460 
3 460 461 16 
3 18 19 17 
3 17 16 18 
3 20 19 18 
3 18 21 20 
3 22 20 21 
3 21 23 22 
3 24 22 23 
3 23 25 24 
3 26 24 25 
3 25 27 26 
3 28 26 27 
3 27 29 28 
3 13 12 28 
3 28 29 13 
3 30 462 463 
3 463 31 30 
3 11 30 31 
3 31 12 11 
3 13 32 33 
3 33 10 13 
3 34 464 462 
3 462 30 34 
3 15 34 30 
3 30 11 15 
3 10 33 35 
3 35 14 10 
3 36 465 466 
3 466 467 36 
3 17 36 467 
3 467 460 17 
3 461 468 37 
3 37 16 461 
3 38 469 465 
3 465 36 38 
3 19 38 36 
3 36 17 19 
3 16 37 39 
3 39 18 16 
3 470 469 38 
3 38 40 470 
3 40 38 19 
3 19 20 40 
3 39 41 21 
3 21 18 39 
3 471 470 40 
3 40 42 471 
3 42 40 20 
3 20 22 42 
3 41 43 23 
3 23 21 41 
3 472 471 42 
3 42 44 472 
3 44 42 22 
3 22 24 44 
3 43 45 25 
3 25 23 43 
3 473 472 44 
3 44 46 473 
3 46 44 24 
3 24 26 46 
3 45 47 27 
3 27 25 45 
3 474 473 46 
3 46 48 474 
3 48 46 26 
3 26 28 48 
3 47 49 29 
3 29 27 47 
3 31 463 474 
3 474 48 31 
3 12 31 48 
3 48 28 12 
3 29 49 32 
3 32 13 29 
3 50 51 52 
3 53 54 55 
3 56 57 58 
3 59 60 61 
3 62 63 64 
3 65 66 67 
3 68 69 70 
3 71 72 73 
3 74 75 76 
3 77 78 79 
3 80 81 82 
3 82 83 80 
3 84 85 86 
3 86 87 84 
3 88 89 90 
3 90 91 88 
3 92 93 94 
3 94 95 92 
3 96 97 98 
3 98 99 96 
3 100 101 102 
3 102 103 100 
3 104 105 106 
3 106 107 104 
3 108 109 110 
3 110 111 108 
3 112 113 114 
3 114 115 112 
3 116 117 118 
3 118 119 116 
3 120 121 122 
3 122 123 120 
3 124 125 126 
3 127 128 129 
3 130 131 132 
3 132 133 130 
3 134 135 136 
3 136 137 134 
3 138 139 140 
3 140 141 138 
3 142 143 144 
3 144 145 142 
3 146 147 148 
3 148 149 146 
3 150 151 152 
3 152 153 150 
3 154 155 156 
3 156 157 154 
3 158 159 52 
3 52 51 158 
3 160 161 55 
3 55 54 160 
3 162 163 58 
3 58 57 162 
3 164 165 61 
3 61 60 164 
3 166 167 64 
3 64 63 166 
3 168 169 67 
3 67 66 168 
3 170 171 70 
3 70 69 170 
3 172 173 73 
3 73 72 172 
3 174 175 76 
3 76 75 174 
3 176 177 79 
3 79 78 176 
3 123 122 81 
3 81 80 123 
3 178 179 85 
3 85 84 178 
3 180 181 89 
3 89 88 180 
3 133 132 93 
3 93 92 133 
3 137 136 97 
3 97 96 137 
3 141 140 101 
3 101 100 141 
3 145 144 105 
3 105 104 145 
3 149 148 109 
3 109 108 149 
3 153 152 113 
3 113 112 153 
3 157 156 117 
3 117 116 157 
3 83 82 159 
3 159 158 83 
3 87 86 161 
3 161 160 87 
3 91 90 163 
3 163 162 91 
3 95 94 165 
3 165 164 95 
3 99 98 167 
3 167 166 99 
3 103 102 169 
3 169 168 103 
3 107 106 171 
3 171 170 107 
3 111 110 173 
3 173 172 111 
3 115 114 175 
3 175 174 115 
3 119 118 177 
3 177 176 119 
3 182 51 50 
3 50 183 182 
3 184 159 82 
3 82 185 184 
3 186 161 86 
3 86 187 186 
3 188 163 90 
3 90 189 188 
3 190 165 94 
3 94 191 190 
3 192 167 98 
3 98 193 192 
3 194 169 102 
3 102 195 194 
3 196 171 106 
3 106 197 196 
3 198 173 110 
3 110 199 198 
3 200 175 114 
3 114 201 200 
3 202 80 83 
3 83 203 202 
3 204 81 122 
3 122 205 204 
3 206 85 179 
3 179 207 206 
3 208 89 181 
3 181 209 208 
3 210 93 132 
3 132 211 210 
3 212 97 136 
3 136 213 212 
3 214 101 140 
3 140 215 214 
3 216 105 144 
3 144 217 216 
3 218 109 148 
3 148 219 218 
3 220 113 152 
3 152 221 220 
3 222 223 120 
3 120 123 222 
3 224 158 51 
3 51 182 224 
3 225 50 52 
3 52 226 225 
3 227 53 55 
3 55 228 227 
3 229 56 58 
3 58 230 229 
3 231 59 61 
3 61 232 231 
3 233 62 64 
3 64 234 233 
3 235 65 67 
3 67 236 235 
3 237 68 70 
3 70 238 237 
3 239 71 73 
3 73 240 239 
3 241 74 76 
3 76 242 241 
3 222 123 80 
3 80 202 222 
3 185 82 81 
3 81 204 185 
3 187 86 85 
3 85 206 187 
3 189 90 89 
3 89 208 189 
3 191 94 93 
3 93 210 191 
3 193 98 97 
3 97 212 193 
3 195 102 101 
3 101 214 195 
3 197 106 105 
3 105 216 197 
3 199 110 109 
3 109 218 199 
3 201 114 113 
3 113 220 201 
3 226 52 159 
3 159 184 226 
3 228 55 161 
3 161 186 228 
3 230 58 163 
3 163 188 230 
3 232 61 165 
3 165 190 232 
3 234 64 167 
3 167 192 234 
3 236 67 169 
3 169 194 236 
3 238 70 171 
3 171 196 238 
3 240 73 173 
3 173 198 240 
3 242 76 175 
3 175 200 242 
3 203 83 158 
3 158 224 203 
3 183 50 225 
3 225 53 227 
3 475 56 229 
3 229 59 231 
3 231 62 233 
3 476 65 235 
3 235 68 237 
3 237 71 239 
3 239 74 241 
3 477 77 183 
3 79 182 183 
3 183 77 79 
3 160 184 185 
3 185 87 160 
3 162 478 479 
3 479 91 162 
3 164 188 189 
3 189 95 164 
3 166 190 191 
3 191 99 166 
3 168 480 481 
3 481 103 168 
3 170 194 195 
3 195 107 170 
3 172 196 197 
3 197 111 172 
3 174 198 199 
3 199 115 174 
3 176 482 483 
3 483 119 176 
3 117 202 203 
3 203 118 117 
3 84 204 205 
3 205 178 84 
3 88 206 207 
3 207 180 88 
3 92 208 209 
3 209 133 92 
3 96 210 211 
3 211 137 96 
3 100 484 485 
3 485 141 100 
3 104 214 215 
3 215 145 104 
3 108 216 217 
3 217 149 108 
3 112 218 219 
3 219 153 112 
3 116 486 487 
3 487 157 116 
3 222 156 155 
3 155 223 222 
3 177 224 182 
3 182 79 177 
3 53 225 226 
3 226 54 53 
3 56 475 488 
3 488 57 56 
3 59 229 230 
3 230 60 59 
3 62 231 232 
3 232 63 62 
3 65 476 489 
3 489 66 65 
3 68 235 236 
3 236 69 68 
3 71 237 238 
3 238 72 71 
3 74 239 240 
3 240 75 74 
3 77 477 490 
3 490 78 77 
3 156 222 202 
3 202 117 156 
3 87 185 204 
3 204 84 87 
3 91 479 206 
3 206 88 91 
3 95 189 208 
3 208 92 95 
3 99 191 210 
3 210 96 99 
3 103 481 484 
3 484 100 103 
3 107 195 214 
3 214 104 107 
3 111 197 216 
3 216 108 111 
3 115 199 218 
3 218 112 115 
3 119 483 486 
3 486 116 119 
3 54 226 184 
3 184 160 54 
3 57 488 478 
3 478 162 57 
3 60 230 188 
3 188 164 60 
3 63 232 190 
3 190 166 63 
3 66 489 480 
3 480 168 66 
3 69 236 194 
3 194 170 69 
3 72 238 196 
3 196 172 72 
3 75 240 198 
3 198 174 75 
3 78 490 482 
3 482 176 78 
3 118 203 224 
3 224 177 118 
3 205 122 121 
3 121 243 205 
3 207 179 244 
3 244 245 207 
3 209 181 246 
3 246 247 209 
3 211 132 131 
3 131 248 211 
3 213 136 135 
3 135 249 213 
3 215 140 139 
3 139 250 215 
3 217 144 143 
3 143 251 217 
3 219 148 147 
3 147 252 219 
3 221 152 151 
3 151 253 221 
3 254 178 205 
3 205 243 254 
3 255 180 207 
3 207 245 255 
3 130 133 209 
3 209 247 130 
3 134 137 211 
3 211 248 134 
3 138 141 485 
3 485 491 138 
3 142 145 215 
3 215 250 142 
3 146 149 217 
3 217 251 146 
3 150 153 219 
3 219 252 150 
3 154 157 487 
3 487 492 154 
3 256 257 258 
3 259 260 261 
3 262 263 264 
3 265 266 267 
3 268 269 270 
3 271 272 273 
3 274 275 276 
3 277 278 279 
3 280 281 282 
3 283 284 285 
3 286 287 288 
3 288 289 286 
3 290 291 292 
3 292 293 290 
3 294 295 296 
3 296 297 294 
3 298 299 300 
3 300 301 298 
3 302 303 304 
3 304 305 302 
3 306 307 308 
3 308 309 306 
3 310 311 312 
3 312 313 310 
3 314 315 316 
3 316 317 314 
3 318 319 320 
3 320 321 318 
3 322 323 324 
3 324 325 322 
3 120 326 327 
3 327 121 120 
3 328 329 330 
3 331 328 330 
3 332 331 330 
3 333 334 335 
3 336 333 335 
3 337 336 335 
3 130 338 339 
3 339 131 130 
3 134 340 341 
3 341 135 134 
3 138 342 343 
3 343 139 138 
3 142 344 345 
3 345 143 142 
3 146 346 347 
3 347 147 146 
3 150 348 349 
3 349 151 150 
3 154 350 351 
3 351 155 154 
3 352 258 257 
3 257 353 352 
3 354 261 260 
3 260 355 354 
3 356 264 263 
3 263 357 356 
3 358 267 266 
3 266 359 358 
3 360 270 269 
3 269 361 360 
3 362 273 272 
3 272 363 362 
3 364 276 275 
3 275 365 364 
3 366 279 278 
3 278 367 366 
3 368 282 281 
3 281 369 368 
3 370 285 284 
3 284 371 370 
3 326 286 289 
3 289 327 326 
3 372 290 293 
3 293 373 372 
3 374 294 297 
3 297 375 374 
3 338 298 301 
3 301 339 338 
3 340 302 305 
3 305 341 340 
3 342 306 309 
3 309 343 342 
3 344 310 313 
3 313 345 344 
3 346 314 317 
3 317 347 346 
3 348 318 321 
3 321 349 348 
3 350 322 325 
3 325 351 350 
3 287 352 353 
3 353 288 287 
3 291 354 355 
3 355 292 291 
3 295 356 357 
3 357 296 295 
3 299 358 359 
3 359 300 299 
3 303 360 361 
3 361 304 303 
3 307 362 363 
3 363 308 307 
3 311 364 365 
3 365 312 311 
3 315 366 367 
3 367 316 315 
3 319 368 369 
3 369 320 319 
3 323 370 371 
3 371 324 323 
3 376 377 378 
3 378 379 380 
3 380 381 382 
3 382 383 384 
3 380 382 384 
3 378 380 384 
3 376 378 384 
3 376 384 385 
3 386 493 256 
3 256 258 386 
3 387 388 288 
3 288 353 387 
3 389 390 292 
3 292 355 389 
3 391 392 296 
3 296 357 391 
3 393 394 300 
3 300 359 393 
3 395 396 304 
3 304 361 395 
3 397 398 308 
3 308 363 397 
3 399 400 312 
3 312 365 399 
3 401 402 316 
3 316 367 401 
3 403 404 320 
3 320 369 403 
3 405 406 287 
3 287 286 405 
3 407 408 327 
3 327 289 407 
3 409 410 373 
3 373 293 409 
3 411 412 375 
3 375 297 411 
3 413 414 339 
3 339 301 413 
3 415 416 341 
3 341 305 415 
3 417 418 343 
3 343 309 417 
3 419 420 345 
3 345 313 419 
3 421 422 347 
3 347 317 421 
3 423 424 349 
3 349 321 423 
3 425 326 120 
3 120 223 425 
3 426 386 258 
3 258 352 426 
3 494 427 257 
3 257 256 494 
3 495 428 260 
3 260 259 495 
3 496 429 263 
3 263 262 496 
3 497 430 266 
3 266 265 497 
3 498 431 269 
3 269 268 498 
3 499 432 272 
3 272 271 499 
3 500 433 275 
3 275 274 500 
3 501 434 278 
3 278 277 501 
3 502 435 281 
3 281 280 502 
3 425 405 286 
3 286 326 425 
3 388 407 289 
3 289 288 388 
3 390 409 293 
3 293 292 390 
3 392 411 297 
3 297 296 392 
3 394 413 301 
3 301 300 394 
3 396 415 305 
3 305 304 396 
3 398 417 309 
3 309 308 398 
3 400 419 313 
3 313 312 400 
3 402 421 317 
3 317 316 402 
3 404 423 321 
3 321 320 404 
3 427 387 353 
3 353 257 427 
3 428 389 355 
3 355 260 428 
3 429 391 357 
3 357 263 429 
3 430 393 359 
3 359 266 430 
3 431 395 361 
3 361 269 431 
3 432 397 363 
3 363 272 432 
3 433 399 365 
3 365 275 433 
3 434 401 367 
3 367 278 434 
3 435 403 369 
3 369 281 435 
3 406 426 352 
3 352 287 406 
3 493 494 256 
3 494 495 259 
3 503 496 262 
3 496 497 265 
3 497 498 268 
3 504 499 271 
3 499 500 274 
3 500 501 277 
3 501 502 280 
3 505 493 283 
3 284 283 493 
3 493 386 284 
3 354 291 388 
3 388 387 354 
3 356 295 506 
3 506 507 356 
3 358 299 392 
3 392 391 358 
3 360 303 394 
3 394 393 360 
3 362 307 508 
3 508 509 362 
3 364 311 398 
3 398 397 364 
3 366 315 400 
3 400 399 366 
3 368 319 402 
3 402 401 368 
3 370 323 510 
3 510 511 370 
3 325 324 406 
3 406 405 325 
3 290 372 408 
3 408 407 290 
3 294 374 410 
3 410 409 294 
3 298 338 412 
3 412 411 298 
3 302 340 414 
3 414 413 302 
3 306 342 512 
3 512 513 306 
3 310 344 418 
3 418 417 310 
3 314 346 420 
3 420 419 314 
3 318 348 422 
3 422 421 318 
3 322 350 514 
3 514 515 322 
3 425 223 155 
3 155 351 425 
3 371 284 386 
3 386 426 371 
3 259 261 427 
3 427 494 259 
3 262 264 516 
3 516 503 262 
3 265 267 429 
3 429 496 265 
3 268 270 430 
3 430 497 268 
3 271 273 517 
3 517 504 271 
3 274 276 432 
3 432 499 274 
3 277 279 433 
3 433 500 277 
3 280 282 434 
3 434 501 280 
3 283 285 518 
3 518 505 283 
3 351 325 405 
3 405 425 351 
3 291 290 407 
3 407 388 291 
3 295 294 409 
3 409 506 295 
3 299 298 411 
3 411 392 299 
3 303 302 413 
3 413 394 303 
3 307 306 513 
3 513 508 307 
3 311 310 417 
3 417 398 311 
3 315 314 419 
3 419 400 315 
3 319 318 421 
3 421 402 319 
3 323 322 515 
3 515 510 323 
3 261 354 387 
3 387 427 261 
3 264 356 507 
3 507 516 264 
3 267 358 391 
3 391 429 267 
3 270 360 393 
3 393 430 270 
3 273 362 509 
3 509 517 273 
3 276 364 397 
3 397 432 276 
3 279 366 399 
3 399 433 279 
3 282 368 401 
3 401 434 282 
3 285 370 511 
3 511 518 285 
3 324 371 426 
3 426 406 324 
3 408 243 121 
3 121 327 408 
3 436 437 329 
3 329 328 436 
3 412 247 246 
3 246 375 412 
3 414 248 131 
3 131 339 414 
3 416 249 135 
3 135 341 416 
3 418 250 139 
3 139 343 418 
3 420 251 143 
3 143 345 420 
3 422 252 147 
3 147 347 422 
3 424 253 151 
3 151 349 424 
3 254 243 408 
3 408 372 254 
3 335 437 436 
3 436 337 335 
3 130 247 412 
3 412 338 130 
3 134 248 414 
3 414 340 134 
3 138 491 512 
3 512 342 138 
3 142 250 418 
3 418 344 142 
3 146 251 420 
3 420 346 146 
3 150 252 422 
3 422 348 150 
3 154 492 514 
3 514 350 154 
3 179 178 438 
3 438 439 179 
3 178 254 440 
3 440 438 178 
3 244 439 440 
3 440 254 244 
3 441 181 180 
3 180 442 441 
3 180 255 442 
3 246 181 441 
3 441 443 246 
3 244 254 444 
3 444 445 244 
3 254 372 446 
3 446 444 254 
3 447 331 332 
3 373 410 448 
3 448 449 373 
3 410 374 450 
3 450 448 410 
3 451 375 452 
3 375 246 453 
3 453 452 375 
3 246 255 454 
3 454 453 246 
3 255 245 455 
3 455 454 255 
3 245 244 445 
3 445 455 245 
3 244 179 439 
3 255 246 443 
3 443 442 255 
3 456 333 336 
3 457 449 458 
3 457 372 373 
3 373 449 457 
3 457 446 372 
3 451 459 450 
3 450 374 375 
3 375 451 450 
3 439 438 124 
3 124 126 439 
3 438 440 125 
3 125 124 438 
3 440 439 126 
3 126 125 440 
3 441 442 127 
3 127 129 441 
3 442 443 128 
3 128 127 442 
3 443 441 129 
3 129 128 443 
3 445 444 330 
3 330 329 445 
3 444 446 332 
3 332 330 444 
3 446 457 447 
3 447 332 446 
3 457 458 331 
3 331 447 457 
3 458 449 328 
3 328 331 458 
3 449 448 436 
3 436 328 449 
3 448 450 337 
3 337 436 448 
3 450 459 336 
3 336 337 450 
3 459 451 456 
3 456 336 459 
3 451 452 333 
3 333 456 451 
3 452 453 334 
3 334 333 452 
3 453 454 335 
3 335 334 453 
3 454 455 437 
3 437 335 454 
3 455 445 329 
3 329 437 455 
