ply
format ascii 1.0
comment VCGLIB generated
element vertex 40
property float x
property float y
property float z
property float nx
property float ny
property float nz
element face 60
property list uchar int vertex_indices
end_header
3.627 -0.0217 750.733 -0.707107 0 2.70711 
19.3435 -0.0217 750.733 1.41421 0 2.41421 
2.627 -0.0217 -76.2316 -2.70711 0 -0.707107 
20.3435 -0.0217 -76.2316 2.41421 0 -1.41421 
3.627 213.152 750.733 -1.41421 0 2.41421 
20.3435 213.152 749.733 2.41421 0 1.41421 
2.627 213.152 -76.2316 -2.41421 0 -1.41421 
19.3435 213.152 -77.2316 1.41421 0 -2.41421 
2.627 -0.0217 749.733 -2.41421 0 1.41421 
20.3435 -0.0217 749.733 2.70711 0 0.707107 
3.627 -0.0217 -77.2316 -1.41421 0 -2.41421 
19.3435 -0.0217 -77.2316 0.707107 0 -2.70711 
2.627 213.152 749.733 -2.70711 0 0.707107 
19.3435 213.152 750.733 0.707107 0 2.70711 
3.627 213.152 -77.2316 -0.707107 0 -2.70711 
20.3435 213.152 -76.2316 2.70711 0 -0.707107 
-0.919601 210.371 759.21 -1.70711 -2.41421 5.12132 
24.2648 209.371 758.21 1.70711 -4.12132 2.41421 
-0.919601 223.409 759.21 -2.41421 1.70711 4.12132 
25.2648 223.409 758.21 4.12132 1.70711 2.41421 
-1.9196 210.371 758.21 -4.12132 -1.70711 2.41421 
-0.919601 209.371 758.21 -2.41421 -5.12132 1.70711 
25.2648 210.371 758.21 5.12132 -2.41421 1.70711 
24.2648 210.371 759.21 2.41421 -1.70711 4.12132 
-0.919601 224.409 758.21 -1.70711 5.12132 2.41421 
-1.9196 223.409 758.21 -5.12132 2.41421 1.70711 
24.2648 224.409 758.21 2.41421 4.12132 1.70711 
24.2648 223.409 759.21 1.70711 2.41421 5.12132 
24.2648 210.371 -85.4396 1.73259 -2.44629 -5.10137 
-0.919601 210.371 -85.4396 -2.44629 -1.73259 -4.10137 
-0.919601 223.409 -85.4396 -1.73259 2.44629 -5.10137 
24.2648 223.409 -85.4396 2.44629 1.73259 -4.10137 
-0.919601 209.371 -84.4207 -1.726 -4.15339 -2.40091 
24.2648 209.371 -84.4207 2.43311 -5.14681 -1.70046 
24.2648 224.409 -84.4207 1.726 5.15339 -2.40091 
-0.919601 224.409 -84.4207 -2.43311 4.14681 -1.70046 
25.2648 210.371 -84.4207 4.15339 -1.726 -2.40091 
25.2648 223.409 -84.4207 5.14681 2.43311 -1.70046 
-1.9196 210.371 -84.4207 -5.14681 -2.43311 -1.70046 
-1.9196 223.409 -84.4207 -4.15339 1.726 -2.40091 
3 13 4 0 
3 13 0 1 
3 15 5 9 
3 15 9 3 
3 14 7 11 
3 14 11 10 
3 12 6 2 
3 12 2 8 
3 1 9 5 
3 1 5 13 
3 4 12 8 
3 4 8 0 
3 3 11 7 
3 3 7 15 
3 10 2 6 
3 10 6 14 
3 21 32 33 
3 21 33 17 
3 24 26 34 
3 24 34 35 
3 22 36 37 
3 22 37 19 
3 25 39 38 
3 25 38 20 
3 27 18 16 
3 27 16 23 
3 16 20 21 
3 17 22 23 
3 18 24 25 
3 19 26 27 
3 21 20 38 
3 21 38 32 
3 33 36 22 
3 33 22 17 
3 17 23 16 
3 17 16 21 
3 24 18 27 
3 24 27 26 
3 26 19 37 
3 26 37 34 
3 35 39 25 
3 35 25 24 
3 19 27 23 
3 19 23 22 
3 20 16 18 
3 20 18 25 
3 28 29 30 
3 28 30 31 
3 38 29 32 
3 33 28 36 
3 39 35 30 
3 31 34 37 
3 32 29 28 
3 32 28 33 
3 34 31 30 
3 34 30 35 
3 36 28 31 
3 36 31 37 
3 29 38 39 
3 29 39 30 
