ply
format ascii 1.0
comment VCGLIB generated
element vertex 673
property float x
property float y
property float z
element face 1310
property list uchar int vertex_indices
end_header
32.7676 6.69538 -1.09037 
33.5942 6.61609 -1.3638 
33.6059 6.61493 -1.67862 
32.8331 6.68661 -1.94262 
32.8027 6.98065 -1.09037 
33.61 6.9019 -1.37063 
33.6043 6.90123 -1.65737 
32.8682 6.97187 -1.94262 
33.7156 6.89207 -1.52337 
33.6807 6.60681 -1.51906 
33.3743 6.91951 -1.81014 
33.3333 6.635 -1.8124 
33.3681 6.92733 -1.24077 
33.3358 6.64169 -1.24185 
32.7994 6.95801 -1.07322 
33.5993 6.97217 -1.34614 
33.6052 6.97258 -1.68908 
32.8655 6.96077 -1.98198 
32.8079 6.69224 -1.07322 
33.6078 6.70639 -1.34614 
33.6109 6.70681 -1.68802 
32.8739 6.695 -1.98198 
33.7349 6.70841 -1.52337 
33.7265 6.97416 -1.51906 
33.3734 6.70334 -1.81374 
33.359 6.96889 -1.81601 
33.3748 6.69582 -1.23843 
33.3692 6.9617 -1.23951 
24.5631 3.87824 -1.96942 
26.0286 3.66933 -1.91152 
26.8604 3.9562 -1.85787 
28.3758 3.75864 -1.94935 
29.6446 3.78834 -1.97975 
30.9235 4.14132 -2.06114 
24.6553 3.93285 -2.54129 
26.4132 3.75919 -2.4075 
26.8735 4.26333 -2.24357 
28.4376 4.1115 -2.37384 
29.5469 4.13793 -2.45462 
30.86 4.3114 -2.47398 
25.101 4.09009 -2.83913 
26.1367 4.1997 -2.91336 
26.875 4.69774 -2.4819 
28.4528 4.64201 -2.63913 
29.7708 4.52057 -2.86992 
30.4408 4.50339 -2.8225 
24.7219 6.13187 -1.92295 
25.7741 6.48641 -1.88356 
27.2344 6.60238 -1.94819 
28.4564 6.67737 -2.00159 
29.5145 7.05579 -2.03271 
30.2722 7.07142 -1.98313 
24.9126 6.02292 -2.15633 
25.8009 6.26198 -2.18671 
27.1787 6.39849 -2.31281 
28.4263 6.4559 -2.35553 
29.5123 6.72109 -2.40206 
30.4123 6.76452 -2.33149 
25.133 5.76975 -2.46349 
25.856 5.94875 -2.50107 
27.1026 6.04069 -2.52412 
28.4719 6.093 -2.57346 
29.5349 6.32853 -2.60547 
30.6487 6.18714 -2.49499 
31.0739 4.80139 -2.06695 
30.9578 4.95519 -2.49906 
30.4691 5.14484 -2.77198 
29.6125 5.20273 -2.84186 
28.4522 5.17248 -2.73555 
26.9423 5.14001 -2.63534 
26.0149 4.93799 -2.8986 
25.0474 4.77916 -2.76908 
24.5817 4.66293 -2.42791 
24.38 4.58188 -1.97962 
31.359 5.24794 -2.10839 
30.9889 5.47866 -2.4463 
30.4257 5.65455 -2.65005 
29.5666 5.73618 -2.73286 
28.4552 5.65602 -2.70752 
27.0102 5.59032 -2.65582 
25.9323 5.51083 -2.78583 
25.0939 5.43455 -2.62531 
24.5942 5.24853 -2.3358 
24.3807 5.11957 -1.99237 
25.8043 3.17388 -2.15544 
24.8408 3.23114 -2.24139 
24.8758 3.27042 -2.59638 
25.2162 3.28287 -2.83553 
25.8117 3.23903 -2.84674 
26.2167 3.16903 -2.49853 
24.6784 4.02683 -1.52489 
26.0227 3.7092 -1.52489 
26.8457 3.87409 -1.52489 
28.3722 3.6545 -1.52489 
29.5487 3.58772 -1.52489 
31.0025 4.06158 -1.52489 
24.6264 6.22965 -1.52489 
25.7597 6.54272 -1.52489 
27.2499 6.64403 -1.52489 
28.4599 6.7332 -1.52489 
29.5362 7.09643 -1.52489 
30.2338 7.24872 -1.52489 
31.4619 4.66729 -1.52489 
24.4099 4.62838 -1.52489 
31.5734 5.12878 -1.52489 
24.3476 4.93863 -1.52489 
25.2474 3.23116 -2.08562 
25.317 3.65908 -1.81123 
25.3449 3.76455 -1.52489 
30.864 7.01736 -2.27498 
30.7292 7.29253 -1.99435 
30.6354 7.51372 -1.52489 
31.828 5.40957 -1.52489 
31.5681 5.7001 -2.12058 
31.2932 6.09667 -2.37338 
31.9414 5.70439 -1.52489 
30.5727 3.58368 -2.19224 
29.7159 3.54528 -2.09853 
29.535 3.56129 -2.48541 
29.8124 3.64662 -2.79572 
30.3146 3.69355 -2.79255 
30.5699 3.669 -2.51499 
30.2632 3.59339 -1.52489 
30.137 3.7122 -1.9712 
30.1162 3.48139 -2.09491 
25.4645 2.42131 -2.30005 
25.1609 2.44889 -2.27119 
24.8375 2.47002 -2.3984 
24.8111 2.50373 -2.59355 
25.0924 2.44047 -2.76171 
25.4405 2.43438 -2.7821 
25.7284 2.43282 -2.5653 
25.248 2.09974 -2.34813 
24.9826 2.14467 -2.29281 
24.6983 2.15841 -2.42294 
24.7023 2.17493 -2.61996 
24.9546 2.15012 -2.78757 
25.2642 2.10412 -2.76605 
25.4537 2.12637 -2.56392 
25.2587 1.89348 -2.33419 
24.9657 1.86163 -2.30995 
24.8081 1.87489 -2.41337 
24.7918 1.86182 -2.63254 
25.0038 1.84922 -2.75764 
25.2643 1.87786 -2.7581 
25.4113 1.93091 -2.56923 
30.3495 3.13684 -2.26643 
30.0823 3.08656 -2.16959 
29.7765 3.05997 -2.21513 
29.679 3.1119 -2.49669 
29.8978 3.12035 -2.71551 
30.2785 3.15399 -2.75418 
30.4916 3.16411 -2.51753 
30.358 1.85768 -2.23688 
30.1966 1.84414 -2.1679 
29.9685 1.84416 -2.26019 
29.8685 1.85471 -2.48146 
30.0674 1.86057 -2.64294 
30.3322 1.88785 -2.64846 
30.5211 1.92675 -2.47955 
30.3723 1.74178 -2.24578 
30.1727 1.71002 -2.18357 
29.997 1.68773 -2.26516 
29.9414 1.66668 -2.47361 
30.1339 1.7128 -2.63085 
30.3318 1.73835 -2.64845 
30.5251 1.74228 -2.48131 
30.5287 0.969897 -2.26908 
30.3564 0.96405 -2.16574 
30.2058 0.975149 -2.26768 
30.1092 0.981958 -2.43669 
30.2177 0.978639 -2.65098 
30.4402 1.00387 -2.73467 
30.5943 1.05788 -2.51985 
30.4743 0.671615 -2.16024 
30.3408 0.684888 -2.16265 
30.1794 0.697888 -2.23546 
30.1041 0.733812 -2.44013 
30.1992 0.707648 -2.72396 
30.4122 0.685584 -2.81589 
30.4895 0.410237 -2.47853 
25.4152 1.18293 -2.39058 
25.2395 1.16382 -2.3555 
25.1046 1.16837 -2.44777 
25.0746 1.15917 -2.62163 
25.2224 1.16435 -2.71065 
25.3914 1.17134 -2.7216 
25.5358 1.23877 -2.57735 
25.6666 0.767826 -2.34216 
25.3403 0.827061 -2.34878 
25.0868 0.824418 -2.4142 
25.0566 0.803239 -2.67291 
25.2907 0.798471 -2.81017 
25.5959 0.754576 -2.88334 
25.7503 0.940834 -2.61206 
30.7064 0.842004 -2.80895 
30.7634 0.92392 -2.54755 
30.7567 0.831626 -2.29008 
30.82 0.639329 -2.16932 
30.7699 0.406264 -2.53285 
30.688 0.670924 -2.92286 
30.9067 0.776647 -2.86618 
31.0372 0.906006 -2.59035 
31.0091 0.771807 -2.30982 
31.0767 0.609537 -2.26171 
31.2128 0.619528 -2.63064 
30.9542 0.625823 -2.96158 
30.5244 0.447688 -2.23284 
30.304 0.517671 -2.29734 
30.2368 0.517539 -2.47451 
30.3177 0.52785 -2.69464 
30.4796 0.472002 -2.77082 
30.7185 0.46466 -2.86559 
31.0441 0.461418 -2.90332 
31.182 0.429186 -2.60873 
31.1219 0.456733 -2.2884 
30.8792 0.45705 -2.19785 
25.6721 0.536738 -2.28282 
25.4264 0.59612 -2.3345 
25.253 0.627598 -2.41177 
25.2264 0.610293 -2.69141 
25.3943 0.577068 -2.82171 
25.6013 0.525311 -2.95148 
26.2967 0.551377 -2.70178 
25.6319 0.354381 -2.35414 
25.4399 0.401748 -2.39334 
25.3114 0.45132 -2.42221 
25.2969 0.430085 -2.69485 
25.4227 0.404859 -2.81543 
25.6163 0.35604 -2.92274 
25.591 0.305044 -2.67049 
25.8387 0.659562 -2.93553 
25.9479 0.787816 -2.63963 
25.9104 0.658026 -2.34972 
25.9169 0.485801 -2.27684 
25.9291 0.338076 -2.36306 
25.935 0.27208 -2.6666 
25.8573 0.341784 -2.95017 
25.8494 0.511363 -3.00934 
26.042 0.693847 -2.93974 
26.1485 0.772964 -2.70095 
26.1088 0.689087 -2.38971 
26.1752 0.502191 -2.32701 
26.1691 0.350847 -2.40594 
26.2468 0.318646 -2.68717 
26.1079 0.345551 -2.92214 
26.1222 0.521273 -3.00608 
24.4262 5.44987 -1.96801 
24.2273 6.01789 -1.52489 
24.3398 5.80199 -1.91825 
23.7637 5.62412 -1.52489 
23.9409 5.42117 -1.96333 
24.235 5.18313 -1.96022 
23.2463 4.85988 -1.52489 
23.5848 4.73979 -2.03905 
24.0352 4.50355 -2.02574 
24.2756 4.32341 -1.52489 
22.966 3.69908 -1.52489 
23.2453 3.63501 -2.02512 
23.7094 3.45875 -2.05887 
24.0404 3.26383 -1.52489 
22.5464 2.67479 -1.52489 
22.8068 2.46109 -1.89811 
23.1638 2.32474 -1.96027 
23.2985 2.23504 -1.52489 
22.7437 2.20194 -1.52489 
33.1187 6.83843 -1.52489 
33.1798 6.84536 -1.52489 
33.4714 6.8488 -1.52489 
33.673 6.87653 -1.52489 
33.0723 6.82695 -1.75175 
33.1718 6.83045 -1.72118 
33.4664 6.84691 -1.66743 
33.6622 6.88683 -1.63708 
33.0661 6.81898 -1.95433 
33.1749 6.86574 -1.87792 
33.4659 6.88662 -1.78155 
33.6099 6.90023 -1.72223 
32.9908 7.60835 -1.52489 
33.1964 7.45122 -1.52489 
33.4926 7.40262 -1.52489 
33.8663 7.36919 -1.52489 
32.9835 7.57535 -1.7102 
33.1964 7.43862 -1.69182 
33.4903 7.37983 -1.66025 
33.8406 7.34271 -1.63205 
32.8894 7.44895 -1.93031 
33.1956 7.32492 -1.84638 
33.4877 7.29702 -1.76978 
33.7881 7.25975 -1.69184 
33.8115 7.00323 -1.52489 
33.7792 7.00895 -1.63429 
33.6798 7.00087 -1.73774 
33.4793 7.02219 -1.81465 
33.1916 7.0306 -1.91339 
33.0355 7.00922 -1.99406 
33.8796 7.15362 -1.52489 
33.8607 7.15486 -1.63054 
33.7422 7.13776 -1.71824 
33.4877 7.1623 -1.80501 
33.184 7.18226 -1.88784 
33.0073 7.20329 -1.97304 
32.8024 7.86174 -1.52489 
32.8055 7.88251 -1.73968 
32.7754 7.81781 -1.99687 
32.2853 8.06177 -1.52489 
32.2905 8.12173 -1.71008 
32.3105 8.16071 -1.79927 
31.9195 8.1127 -1.52489 
31.9379 8.13995 -1.73594 
31.9848 8.15405 -1.87987 
31.4681 8.02401 -1.52489 
31.4937 8.05048 -1.75436 
31.5318 7.92964 -2.11785 
32.6491 7.62985 -2.25144 
32.2384 7.84163 -2.39159 
31.9517 7.90756 -2.35772 
31.6057 7.69424 -2.41647 
32.425 7.43756 -2.43892 
32.9173 6.78366 -2.04661 
32.8447 6.93331 -2.10834 
32.7334 7.32868 -2.17912 
32.5279 7.14108 -2.33359 
32.6188 6.80374 -2.18756 
33.1135 6.82624 -1.52489 
33.08 6.8238 -1.74269 
33.062 6.76088 -1.93424 
33.0259 6.69154 -1.95938 
33.1925 6.81899 -1.52489 
33.1777 6.81664 -1.73473 
33.1633 6.74657 -1.87596 
33.502 6.7719 -1.52489 
33.4945 6.77327 -1.70817 
33.4171 6.70464 -1.79969 
33.7004 6.66944 -1.52489 
33.6328 6.68125 -1.67219 
33.5554 6.68018 -1.7462 
33.1555 6.66563 -1.89236 
33.4024 6.6373 -1.81684 
33.7172 6.61098 -1.52489 
33.6451 6.61847 -1.66984 
33.5496 6.62671 -1.75936 
33.6352 6.49972 -1.52489 
33.585 6.526 -1.66405 
33.5171 6.56301 -1.74475 
33.3775 6.4656 -1.52489 
33.3678 6.50468 -1.68787 
33.3796 6.56419 -1.78814 
33.1404 6.46487 -1.52489 
33.1336 6.49536 -1.70564 
33.1476 6.57281 -1.86022 
32.9789 6.44906 -1.52489 
32.9755 6.47965 -1.66792 
33.005 6.5742 -1.89655 
32.6964 6.35402 -1.52489 
32.678 6.51869 -2.00946 
32.366 6.1597 -1.52489 
32.311 6.33266 -1.9649 
32.1161 5.9264 -1.52489 
32.0442 6.15152 -1.92532 
32.0981 7.21221 -2.54853 
32.1982 6.85869 -2.43842 
32.255 6.5869 -2.20631 
31.7148 7.07573 -2.52985 
31.8375 6.71443 -2.43446 
31.9471 6.38121 -2.12608 
32.2026 8.59961 -2.16551 
32.2515 8.61933 -2.17376 
32.2192 8.51379 -2.42309 
32.1657 8.50505 -2.40954 
31.0601 7.6741 -1.52489 
31.1522 7.53933 -2.0327 
31.2615 7.28621 -2.34856 
31.7435 5.99919 -2.06854 
31.402 6.85346 -2.40913 
31.5459 6.42622 -2.35099 
32.2337 8.60725 -2.3257 
32.1857 8.59245 -2.32323 
31.045 6.5722 -2.34442 
24.5631 3.87824 -1.08035 
26.0286 3.66933 -1.13825 
26.8604 3.9562 -1.1919 
28.3758 3.75864 -1.10042 
29.6446 3.78834 -1.07002 
30.9235 4.14132 -0.988632 
24.6553 3.93285 -0.508483 
26.4132 3.75919 -0.642275 
26.8735 4.26333 -0.806203 
28.4376 4.1115 -0.675935 
29.5469 4.13793 -0.595148 
30.86 4.3114 -0.57579 
25.101 4.09009 -0.210645 
26.1367 4.1997 -0.136414 
26.875 4.69774 -0.567868 
28.4528 4.64201 -0.410642 
29.7708 4.52057 -0.179854 
30.4408 4.50339 -0.227265 
24.7219 6.13187 -1.12682 
25.7741 6.48641 -1.16621 
27.2344 6.60238 -1.10158 
28.4564 6.67737 -1.04818 
29.5145 7.05579 -1.01706 
30.2722 7.07142 -1.06664 
24.9126 6.02292 -0.89344 
25.8009 6.26198 -0.863057 
27.1787 6.39849 -0.736964 
28.4263 6.4559 -0.694239 
29.5123 6.72109 -0.647708 
30.4123 6.76452 -0.718281 
25.133 5.76975 -0.586277 
25.856 5.94875 -0.548703 
27.1026 6.04069 -0.525653 
28.4719 6.093 -0.476311 
29.5349 6.32853 -0.444304 
30.6487 6.18714 -0.554779 
31.0739 4.80139 -0.982818 
30.9578 4.95519 -0.550709 
30.4691 5.14484 -0.277792 
29.6125 5.20273 -0.207912 
28.4522 5.17248 -0.314223 
26.9423 5.14001 -0.414433 
26.0149 4.93799 -0.151166 
25.0474 4.77916 -0.280693 
24.5817 4.66293 -0.62186 
24.38 4.58188 -1.07015 
31.359 5.24794 -0.941385 
30.9889 5.47866 -0.603469 
30.4257 5.65455 -0.39972 
29.5666 5.73618 -0.316912 
28.4552 5.65602 -0.342253 
27.0102 5.59032 -0.393948 
25.9323 5.51083 -0.263942 
25.0939 5.43455 -0.424464 
24.5942 5.24853 -0.713972 
24.3807 5.11957 -1.0574 
25.8043 3.17388 -0.894327 
24.8408 3.23114 -0.808376 
24.8758 3.27042 -0.453387 
25.2162 3.28287 -0.214242 
25.8117 3.23903 -0.203033 
26.2167 3.16903 -0.551237 
25.2474 3.23116 -0.964154 
25.317 3.65908 -1.23854 
30.864 7.01736 -0.774791 
30.7292 7.29253 -1.05542 
31.5681 5.7001 -0.929193 
31.2932 6.09667 -0.676386 
30.5727 3.58368 -0.857531 
29.7159 3.54528 -0.951237 
29.535 3.56129 -0.564358 
29.8124 3.64662 -0.254054 
30.3146 3.69355 -0.257218 
30.5699 3.669 -0.53478 
30.137 3.7122 -1.07857 
30.1162 3.48139 -0.954859 
25.4645 2.42131 -0.749721 
25.1609 2.44889 -0.778575 
24.8375 2.47002 -0.651367 
24.8111 2.50373 -0.456218 
25.0924 2.44047 -0.288059 
25.4405 2.43438 -0.267666 
25.7284 2.43282 -0.484471 
25.248 2.09974 -0.701644 
24.9826 2.14467 -0.756964 
24.6983 2.15841 -0.626833 
24.7023 2.17493 -0.42981 
24.9546 2.15012 -0.262198 
25.2642 2.10412 -0.283718 
25.4537 2.12637 -0.485855 
25.2587 1.89348 -0.71558 
24.9657 1.86163 -0.739815 
24.8081 1.87489 -0.636396 
24.7918 1.86182 -0.417233 
25.0038 1.84922 -0.29213 
25.2643 1.87786 -0.291668 
25.4113 1.93091 -0.480544 
30.3495 3.13684 -0.783337 
30.0823 3.08656 -0.880183 
29.7765 3.05997 -0.834644 
29.679 3.1119 -0.553082 
29.8978 3.12035 -0.334259 
30.2785 3.15399 -0.295593 
30.4916 3.16411 -0.532238 
30.358 1.85768 -0.812888 
30.1966 1.84414 -0.881868 
29.9685 1.84416 -0.78958 
29.8685 1.85471 -0.568309 
30.0674 1.86057 -0.40683 
30.3322 1.88785 -0.401313 
30.5211 1.92675 -0.570215 
30.3723 1.74178 -0.803991 
30.1727 1.71002 -0.866201 
29.997 1.68773 -0.784612 
29.9414 1.66668 -0.576163 
30.1339 1.7128 -0.418921 
30.3318 1.73835 -0.401318 
30.5251 1.74228 -0.568461 
30.5287 0.969897 -0.780692 
30.3564 0.96405 -0.884029 
30.2058 0.975149 -0.782094 
30.1092 0.981958 -0.613084 
30.2177 0.978639 -0.398788 
30.4402 1.00387 -0.315101 
30.5943 1.05788 -0.529921 
30.4743 0.671615 -0.889527 
30.3408 0.684888 -0.887123 
30.1794 0.697888 -0.814313 
30.1041 0.733812 -0.609637 
30.1992 0.707648 -0.325812 
30.4122 0.685584 -0.233877 
30.4895 0.410237 -0.571236 
25.4152 1.18293 -0.659191 
25.2395 1.16382 -0.694266 
25.1046 1.16837 -0.601996 
25.0746 1.15917 -0.42814 
25.2224 1.16435 -0.339119 
25.3914 1.17134 -0.328175 
25.5358 1.23877 -0.472416 
25.6666 0.767826 -0.707608 
25.3403 0.827061 -0.700993 
25.0868 0.824418 -0.635572 
25.0566 0.803239 -0.37686 
25.2907 0.798471 -0.239595 
25.5959 0.754576 -0.166433 
25.7503 0.940834 -0.437709 
30.7064 0.842004 -0.240816 
30.7634 0.92392 -0.502219 
30.7567 0.831626 -0.759694 
30.82 0.639329 -0.880456 
30.7699 0.406264 -0.516922 
30.688 0.670924 -0.12691 
30.9067 0.776647 -0.18359 
31.0372 0.906006 -0.459416 
31.0091 0.771807 -0.739948 
31.0767 0.609537 -0.788056 
31.2128 0.619528 -0.419128 
30.9542 0.625823 -0.088186 
30.5244 0.447688 -0.816929 
30.304 0.517671 -0.752434 
30.2368 0.517539 -0.575262 
30.3177 0.52785 -0.355125 
30.4796 0.472002 -0.278949 
30.7185 0.46466 -0.184183 
31.0441 0.461418 -0.146455 
31.182 0.429186 -0.441039 
31.1219 0.456733 -0.761369 
30.8792 0.45705 -0.851916 
25.6721 0.536738 -0.766952 
25.4264 0.59612 -0.715275 
25.253 0.627598 -0.638003 
25.2264 0.610293 -0.358364 
25.3943 0.577068 -0.228061 
25.6013 0.525311 -0.098293 
26.2967 0.551377 -0.347993 
25.6319 0.354381 -0.695632 
25.4399 0.401748 -0.656431 
25.3114 0.45132 -0.627556 
25.2969 0.430085 -0.35492 
25.4227 0.404859 -0.234335 
25.6163 0.35604 -0.127034 
25.591 0.305044 -0.379283 
25.8387 0.659562 -0.114236 
25.9479 0.787816 -0.410137 
25.9104 0.658026 -0.700054 
25.9169 0.485801 -0.772934 
25.9291 0.338076 -0.686714 
25.935 0.27208 -0.383174 
25.8573 0.341784 -0.099602 
25.8494 0.511363 -0.040436 
26.042 0.693847 -0.110027 
26.1485 0.772964 -0.348823 
26.1088 0.689087 -0.660061 
26.1752 0.502191 -0.722761 
26.1691 0.350847 -0.643829 
26.2468 0.318646 -0.362598 
26.1079 0.345551 -0.12763 
26.1222 0.521273 -0.043692 
24.4262 5.44987 -1.08176 
24.3398 5.80199 -1.13152 
23.9409 5.42117 -1.08644 
24.235 5.18313 -1.08955 
23.5848 4.73979 -1.01072 
24.0352 4.50355 -1.02403 
23.2453 3.63501 -1.02465 
23.7094 3.45875 -0.990905 
22.8068 2.46109 -1.15166 
23.1638 2.32474 -1.0895 
33.0723 6.82695 -1.29802 
33.1718 6.83045 -1.32859 
33.4664 6.84691 -1.38234 
33.6622 6.88683 -1.41269 
33.0661 6.81898 -1.09544 
33.1749 6.86574 -1.17185 
33.4659 6.88662 -1.26822 
33.6099 6.90023 -1.32754 
32.9835 7.57535 -1.33957 
33.1964 7.43862 -1.35795 
33.4903 7.37983 -1.38952 
33.8406 7.34271 -1.41772 
32.8894 7.44895 -1.11946 
33.1956 7.32492 -1.20339 
33.4877 7.29702 -1.27999 
33.7881 7.25975 -1.35793 
33.7792 7.00895 -1.41548 
33.6798 7.00087 -1.31203 
33.4793 7.02219 -1.23512 
33.1916 7.0306 -1.13638 
33.0355 7.00922 -1.05571 
33.8607 7.15486 -1.41923 
33.7422 7.13776 -1.33153 
33.4877 7.1623 -1.24476 
33.184 7.18226 -1.16193 
33.0073 7.20329 -1.07673 
32.8055 7.88251 -1.31009 
32.7754 7.81781 -1.0529 
32.2905 8.12173 -1.33969 
32.3105 8.16071 -1.2505 
31.9379 8.13995 -1.31383 
31.9848 8.15405 -1.1699 
31.4937 8.05048 -1.29541 
31.5318 7.92964 -0.93192 
32.6491 7.62985 -0.798326 
32.2384 7.84163 -0.658184 
31.9517 7.90756 -0.692048 
31.6057 7.69424 -0.633299 
32.425 7.43756 -0.610854 
32.9173 6.78366 -1.00316 
32.8447 6.93331 -0.94143 
32.7334 7.32868 -0.870653 
32.5279 7.14108 -0.716181 
32.6188 6.80374 -0.862209 
33.08 6.8238 -1.30708 
33.062 6.76088 -1.11553 
33.0259 6.69154 -1.09039 
33.1777 6.81664 -1.31504 
33.1633 6.74657 -1.17381 
33.4945 6.77327 -1.3416 
33.4171 6.70464 -1.25008 
33.6328 6.68125 -1.37758 
33.5554 6.68018 -1.30357 
33.1555 6.66563 -1.15741 
33.4024 6.6373 -1.23293 
33.6451 6.61847 -1.37993 
33.5496 6.62671 -1.29041 
33.585 6.526 -1.38572 
33.5171 6.56301 -1.30502 
33.3678 6.50468 -1.3619 
33.3796 6.56419 -1.26163 
33.1336 6.49536 -1.34413 
33.1476 6.57281 -1.18955 
32.9755 6.47965 -1.38185 
33.005 6.5742 -1.15322 
32.678 6.51869 -1.04031 
32.311 6.33266 -1.08487 
32.0442 6.15152 -1.12445 
32.0981 7.21221 -0.501239 
32.1982 6.85869 -0.611346 
32.255 6.5869 -0.84346 
31.7148 7.07573 -0.519925 
31.8375 6.71443 -0.615312 
31.9471 6.38121 -0.923687 
32.2026 8.59961 -0.884259 
32.2515 8.61933 -0.876012 
32.2192 8.51379 -0.626679 
32.1657 8.50505 -0.640225 
31.1522 7.53933 -1.01707 
31.2615 7.28621 -0.701211 
31.7435 5.99919 -0.981226 
31.402 6.85346 -0.640637 
31.5459 6.42622 -0.69878 
32.2337 8.60725 -0.724069 
32.1857 8.59245 -0.726546 
31.045 6.5722 -0.705349 
3 5 12 13 
3 13 1 5 
3 2 6 8 
3 8 9 2 
3 11 3 7 
3 7 10 11 
3 5 1 9 
3 9 8 5 
3 10 6 2 
3 2 11 10 
3 12 4 0 
3 0 13 12 
3 26 19 27 
3 15 27 19 
3 20 16 22 
3 23 22 16 
3 17 25 21 
3 24 21 25 
3 15 19 23 
3 22 23 19 
3 20 24 16 
3 25 16 24 
3 18 26 14 
3 27 14 26 
3 230 224 225 
3 227 225 226 
3 230 225 227 
3 35 36 30 
3 29 35 30 
3 36 31 30 
3 31 36 37 
3 38 32 31 
3 31 37 38 
3 180 207 208 
3 208 209 180 
3 228 230 227 
3 230 228 229 
3 42 70 69 
3 36 35 42 
3 42 37 36 
3 37 42 43 
3 37 44 38 
3 44 37 43 
3 210 211 180 
3 180 209 210 
3 47 52 46 
3 52 47 53 
3 54 53 47 
3 47 48 54 
3 55 54 48 
3 48 49 55 
3 50 55 49 
3 55 50 56 
3 57 56 50 
3 50 51 57 
3 53 59 58 
3 58 52 53 
3 54 59 53 
3 59 54 60 
3 61 60 54 
3 54 55 61 
3 56 61 55 
3 61 56 62 
3 62 56 57 
3 57 63 62 
3 39 64 33 
3 64 39 65 
3 45 65 39 
3 65 45 66 
3 65 75 64 
3 74 64 75 
3 66 75 65 
3 75 66 76 
3 75 76 63 
3 44 67 66 
3 66 45 44 
3 44 68 67 
3 68 44 43 
3 69 68 43 
3 43 42 69 
3 80 79 70 
3 41 42 35 
3 40 71 70 
3 70 41 40 
3 77 76 66 
3 66 67 77 
3 68 78 67 
3 77 67 78 
3 69 79 68 
3 78 68 79 
3 41 70 42 
3 70 79 69 
3 71 81 80 
3 80 70 71 
3 62 63 76 
3 76 77 62 
3 78 62 77 
3 62 78 61 
3 60 61 78 
3 78 79 60 
3 79 80 60 
3 59 60 80 
3 58 59 80 
3 80 81 58 
3 34 71 40 
3 71 34 72 
3 73 72 34 
3 34 28 73 
3 82 81 71 
3 71 72 82 
3 73 83 72 
3 82 72 83 
3 82 58 81 
3 247 52 82 
3 82 83 247 
3 52 247 46 
3 58 82 52 
3 85 106 28 
3 107 28 106 
3 86 85 28 
3 28 34 86 
3 87 86 34 
3 34 40 87 
3 41 88 87 
3 87 40 41 
3 35 89 41 
3 88 41 89 
3 29 89 35 
3 89 29 84 
3 90 28 107 
3 107 108 90 
3 92 91 29 
3 30 92 29 
3 31 93 30 
3 92 30 93 
3 94 93 31 
3 31 32 94 
3 33 95 122 
3 33 123 116 
3 96 97 47 
3 47 46 96 
3 97 98 48 
3 48 47 97 
3 98 99 49 
3 49 48 98 
3 99 100 50 
3 50 49 99 
3 50 100 101 
3 101 51 50 
3 102 95 33 
3 33 64 102 
3 104 102 64 
3 64 74 104 
3 28 103 73 
3 103 28 90 
3 73 105 83 
3 105 73 103 
3 262 265 261 
3 29 107 84 
3 108 107 91 
3 84 107 106 
3 107 29 91 
3 110 109 57 
3 57 51 110 
3 111 110 51 
3 51 101 111 
3 74 112 104 
3 112 74 113 
3 75 113 74 
3 113 75 114 
3 114 75 63 
3 63 378 114 
3 110 372 109 
3 372 110 371 
3 111 371 110 
3 371 111 370 
3 373 115 112 
3 112 113 373 
3 114 373 113 
3 373 114 375 
3 374 375 114 
3 374 378 109 
3 123 33 122 
3 123 124 116 
3 38 118 32 
3 117 32 118 
3 44 118 38 
3 118 44 119 
3 120 119 44 
3 44 45 120 
3 39 120 45 
3 120 39 121 
3 33 121 39 
3 121 33 116 
3 122 94 123 
3 32 123 94 
3 117 123 32 
3 123 117 124 
3 106 125 84 
3 125 106 126 
3 127 126 106 
3 106 85 127 
3 86 128 85 
3 127 85 128 
3 87 128 86 
3 128 87 129 
3 130 129 87 
3 87 88 130 
3 131 130 88 
3 88 89 131 
3 125 131 89 
3 89 84 125 
3 126 132 125 
3 132 126 133 
3 127 134 126 
3 133 126 134 
3 128 134 127 
3 134 128 135 
3 136 135 128 
3 128 129 136 
3 137 136 129 
3 129 130 137 
3 138 137 130 
3 130 131 138 
3 132 138 131 
3 131 125 132 
3 140 139 132 
3 132 133 140 
3 134 140 133 
3 140 134 141 
3 142 141 134 
3 134 135 142 
3 136 142 135 
3 142 136 143 
3 144 143 136 
3 136 137 144 
3 145 144 137 
3 137 138 145 
3 139 145 138 
3 138 132 139 
3 124 147 116 
3 146 116 147 
3 117 147 124 
3 147 117 148 
3 118 148 117 
3 148 118 149 
3 119 149 118 
3 149 119 150 
3 151 150 119 
3 119 120 151 
3 152 151 120 
3 120 121 152 
3 116 152 121 
3 152 116 146 
3 154 153 146 
3 146 147 154 
3 148 154 147 
3 154 148 155 
3 156 155 148 
3 148 149 156 
3 150 156 149 
3 156 150 157 
3 151 158 157 
3 157 150 151 
3 152 159 151 
3 158 151 159 
3 146 159 152 
3 159 146 153 
3 154 160 153 
3 160 154 161 
3 155 161 154 
3 161 155 162 
3 163 162 155 
3 155 156 163 
3 157 163 156 
3 163 157 164 
3 165 164 157 
3 157 158 165 
3 166 165 158 
3 158 159 166 
3 153 160 159 
3 166 159 160 
3 168 167 160 
3 160 161 168 
3 162 168 161 
3 168 162 169 
3 170 169 162 
3 162 163 170 
3 171 170 163 
3 163 164 171 
3 172 171 164 
3 164 165 172 
3 166 172 165 
3 172 166 173 
3 167 173 166 
3 166 160 167 
3 168 174 167 
3 174 168 175 
3 168 176 175 
3 176 168 169 
3 170 176 169 
3 176 170 177 
3 171 178 170 
3 177 170 178 
3 179 178 171 
3 171 172 179 
3 202 205 201 
3 206 201 205 
3 203 205 202 
3 205 203 204 
3 182 181 139 
3 139 140 182 
3 141 182 140 
3 182 141 183 
3 184 183 141 
3 141 142 184 
3 185 184 142 
3 142 143 185 
3 186 185 143 
3 143 144 186 
3 187 186 144 
3 144 145 187 
3 181 187 145 
3 145 139 181 
3 181 188 187 
3 181 182 189 
3 190 189 182 
3 182 183 190 
3 184 190 183 
3 190 184 191 
3 192 191 184 
3 184 185 192 
3 193 192 185 
3 185 186 193 
3 187 193 186 
3 193 187 194 
3 188 194 187 
3 188 181 189 
3 172 196 195 
3 172 173 196 
3 197 196 173 
3 173 167 197 
3 198 197 167 
3 167 174 198 
3 199 216 207 
3 207 180 199 
3 212 199 180 
3 180 211 212 
3 195 200 179 
3 195 179 172 
3 202 201 195 
3 195 196 202 
3 203 202 196 
3 196 197 203 
3 198 204 203 
3 203 197 198 
3 199 215 216 
3 215 199 214 
3 213 214 199 
3 199 212 213 
3 201 206 200 
3 200 195 201 
3 175 176 208 
3 175 207 174 
3 175 208 207 
3 177 209 176 
3 208 176 209 
3 178 209 177 
3 209 178 210 
3 179 210 178 
3 210 179 211 
3 212 211 179 
3 179 200 212 
3 206 212 200 
3 212 206 213 
3 205 213 206 
3 213 205 214 
3 215 214 205 
3 205 204 215 
3 216 215 204 
3 204 198 216 
3 207 216 198 
3 198 174 207 
3 218 217 188 
3 188 189 218 
3 219 218 189 
3 189 190 219 
3 191 219 190 
3 219 191 220 
3 192 220 191 
3 220 192 221 
3 193 221 192 
3 221 193 222 
3 240 223 239 
3 246 239 223 
3 242 243 223 
3 223 241 242 
3 225 224 217 
3 217 218 225 
3 226 225 218 
3 218 219 226 
3 220 226 219 
3 226 220 227 
3 220 221 227 
3 228 227 221 
3 222 228 221 
3 228 222 229 
3 244 245 246 
3 246 223 244 
3 243 244 223 
3 223 240 241 
3 232 231 193 
3 193 194 232 
3 188 232 194 
3 232 188 233 
3 217 233 188 
3 233 217 234 
3 224 235 234 
3 234 217 224 
3 236 235 224 
3 224 230 236 
3 237 236 230 
3 230 229 237 
3 238 237 229 
3 229 222 238 
3 231 238 222 
3 222 193 231 
3 232 239 231 
3 239 232 240 
3 241 240 232 
3 232 233 241 
3 234 241 233 
3 241 234 242 
3 243 242 234 
3 234 235 243 
3 236 243 235 
3 243 236 244 
3 245 244 236 
3 236 237 245 
3 246 245 237 
3 237 238 246 
3 239 246 238 
3 238 231 239 
3 46 248 96 
3 248 46 249 
3 247 249 46 
3 247 83 105 
3 249 250 248 
3 250 249 251 
3 247 251 249 
3 251 247 252 
3 247 105 252 
3 251 254 250 
3 253 250 254 
3 252 254 251 
3 254 252 255 
3 256 255 252 
3 252 105 256 
3 254 258 253 
3 257 253 258 
3 259 258 254 
3 254 255 259 
3 256 260 255 
3 259 255 260 
3 258 261 257 
3 261 258 262 
3 263 262 258 
3 258 259 263 
3 260 263 259 
3 263 260 264 
3 263 265 262 
3 265 263 264 
3 271 267 266 
3 266 270 271 
3 272 268 267 
3 267 271 272 
3 273 269 268 
3 268 272 273 
3 275 271 270 
3 270 274 275 
3 276 272 271 
3 271 275 276 
3 277 273 272 
3 272 276 277 
3 279 282 278 
3 282 279 283 
3 280 283 279 
3 283 280 284 
3 281 284 280 
3 284 281 285 
3 287 286 282 
3 282 283 287 
3 288 287 283 
3 283 284 288 
3 285 288 284 
3 288 285 289 
3 273 290 269 
3 290 273 291 
3 273 292 291 
3 292 273 277 
3 297 296 290 
3 290 291 297 
3 292 297 291 
3 297 292 298 
3 297 281 296 
3 281 297 285 
3 289 285 297 
3 297 298 289 
3 276 292 277 
3 292 276 293 
3 275 293 276 
3 293 275 294 
3 295 294 275 
3 275 274 295 
3 293 298 292 
3 298 293 299 
3 294 299 293 
3 299 294 300 
3 301 300 294 
3 294 295 301 
3 299 288 289 
3 289 298 299 
3 287 288 299 
3 299 300 287 
3 301 287 300 
3 287 301 286 
3 303 302 278 
3 278 282 303 
3 304 303 282 
3 282 286 304 
3 306 305 302 
3 302 303 306 
3 307 306 303 
3 303 304 307 
3 306 308 305 
3 308 306 309 
3 307 309 306 
3 309 307 310 
3 308 312 311 
3 312 308 309 
3 309 310 313 
3 313 312 309 
3 286 321 314 
3 314 304 286 
3 304 315 307 
3 315 304 314 
3 377 366 367 
3 367 376 377 
3 316 317 313 
3 313 310 316 
3 321 318 314 
3 318 321 322 
3 315 314 318 
3 319 320 295 
3 295 274 319 
3 320 321 301 
3 301 295 320 
3 286 301 321 
3 319 323 320 
3 323 319 355 
3 320 322 321 
3 322 320 323 
3 324 325 270 
3 270 266 324 
3 325 326 274 
3 274 270 325 
3 326 327 319 
3 319 274 326 
3 327 353 355 
3 355 319 327 
3 328 329 325 
3 325 324 328 
3 329 330 326 
3 326 325 329 
3 328 331 332 
3 332 329 328 
3 329 332 330 
3 333 330 332 
3 332 331 334 
3 334 335 332 
3 332 335 333 
3 336 333 335 
3 330 337 327 
3 327 326 330 
3 338 337 330 
3 330 333 338 
3 336 341 333 
3 338 333 341 
3 339 340 335 
3 335 334 339 
3 340 341 336 
3 336 335 340 
3 350 353 327 
3 327 337 350 
3 338 350 337 
3 350 338 347 
3 344 347 338 
3 338 341 344 
3 342 343 340 
3 340 339 342 
3 343 344 341 
3 341 340 343 
3 345 346 343 
3 343 342 345 
3 346 347 344 
3 344 343 346 
3 345 349 346 
3 349 345 348 
3 346 350 347 
3 350 346 349 
3 351 352 349 
3 349 348 351 
3 352 353 350 
3 350 349 352 
3 352 351 354 
3 354 355 353 
3 353 352 354 
3 355 362 323 
3 362 355 357 
3 357 355 354 
3 354 356 357 
3 359 365 362 
3 362 357 359 
3 358 359 357 
3 357 356 358 
3 361 360 318 
3 318 322 361 
3 323 362 361 
3 361 322 323 
3 361 363 360 
3 363 361 364 
3 363 316 360 
3 316 363 317 
3 365 364 361 
3 361 362 365 
3 310 367 366 
3 367 310 307 
3 307 315 368 
3 307 368 376 
3 307 376 367 
3 369 368 315 
3 315 316 369 
3 316 310 377 
3 366 377 310 
3 316 377 369 
3 311 312 370 
3 313 370 312 
3 370 313 371 
3 372 371 313 
3 313 317 372 
3 363 372 317 
3 372 363 374 
3 365 359 373 
3 115 373 359 
3 359 358 115 
3 375 374 363 
3 363 364 375 
3 373 375 364 
3 364 365 373 
3 377 376 368 
3 368 369 377 
3 315 318 360 
3 360 316 315 
3 109 378 63 
3 63 57 109 
3 374 114 378 
3 109 372 374 
3 560 555 554 
3 557 556 555 
3 560 557 555 
3 386 381 387 
3 380 381 386 
3 387 381 382 
3 382 388 387 
3 389 382 383 
3 382 389 388 
3 510 538 537 
3 538 510 539 
3 558 557 560 
3 560 559 558 
3 393 420 421 
3 387 393 386 
3 393 387 388 
3 388 394 393 
3 388 389 395 
3 395 394 388 
3 540 510 541 
3 510 540 539 
3 398 397 403 
3 403 404 398 
3 405 398 404 
3 398 405 399 
3 406 399 405 
3 399 406 400 
3 401 400 406 
3 406 407 401 
3 408 401 407 
3 401 408 402 
3 404 409 410 
3 409 404 403 
3 405 404 410 
3 410 411 405 
3 412 405 411 
3 405 412 406 
3 407 406 412 
3 412 413 407 
3 413 408 407 
3 408 413 414 
3 390 384 415 
3 415 416 390 
3 396 390 416 
3 416 417 396 
3 416 415 426 
3 425 426 415 
3 417 416 426 
3 426 427 417 
3 426 414 427 
3 395 417 418 
3 417 395 396 
3 395 418 419 
3 419 394 395 
3 420 394 419 
3 394 420 393 
3 431 421 430 
3 392 386 393 
3 391 421 422 
3 421 391 392 
3 428 417 427 
3 417 428 418 
3 419 418 429 
3 428 429 418 
3 420 419 430 
3 429 430 419 
3 392 393 421 
3 421 420 430 
3 422 431 432 
3 431 422 421 
3 413 427 414 
3 427 413 428 
3 429 428 413 
3 413 412 429 
3 411 429 412 
3 429 411 430 
3 430 411 431 
3 410 431 411 
3 409 431 410 
3 431 409 432 
3 385 391 422 
3 422 423 385 
3 424 385 423 
3 385 424 379 
3 433 422 432 
3 422 433 423 
3 424 423 434 
3 433 434 423 
3 433 432 409 
3 577 433 403 
3 433 577 434 
3 403 397 577 
3 409 403 433 
3 436 379 441 
3 442 441 379 
3 437 379 436 
3 379 437 385 
3 438 385 437 
3 385 438 391 
3 392 438 439 
3 438 392 391 
3 386 392 440 
3 439 440 392 
3 380 386 440 
3 440 435 380 
3 90 442 379 
3 442 90 108 
3 92 380 91 
3 381 380 92 
3 382 381 93 
3 92 93 381 
3 94 382 93 
3 382 94 383 
3 384 122 95 
3 384 447 453 
3 96 398 97 
3 398 96 397 
3 97 399 98 
3 399 97 398 
3 98 400 99 
3 400 98 399 
3 99 401 100 
3 401 99 400 
3 401 101 100 
3 101 401 402 
3 102 384 95 
3 384 102 415 
3 104 415 102 
3 415 104 425 
3 379 424 103 
3 103 90 379 
3 424 434 105 
3 105 103 424 
3 585 261 265 
3 380 435 442 
3 108 91 442 
3 435 441 442 
3 442 91 380 
3 444 408 443 
3 408 444 402 
3 111 402 444 
3 402 111 101 
3 425 104 112 
3 112 445 425 
3 426 425 445 
3 445 446 426 
3 446 414 426 
3 414 446 672 
3 444 443 666 
3 666 665 444 
3 111 444 665 
3 665 370 111 
3 667 112 115 
3 112 667 445 
3 446 445 667 
3 667 669 446 
3 668 446 669 
3 668 443 672 
3 453 122 384 
3 453 447 454 
3 389 383 449 
3 448 449 383 
3 395 389 449 
3 449 450 395 
3 451 395 450 
3 395 451 396 
3 390 396 451 
3 451 452 390 
3 384 390 452 
3 452 447 384 
3 122 453 94 
3 383 94 453 
3 448 383 453 
3 453 454 448 
3 441 435 455 
3 455 456 441 
3 457 441 456 
3 441 457 436 
3 437 436 458 
3 457 458 436 
3 438 437 458 
3 458 459 438 
3 460 438 459 
3 438 460 439 
3 461 439 460 
3 439 461 440 
3 455 440 461 
3 440 455 435 
3 456 455 462 
3 462 463 456 
3 457 456 464 
3 463 464 456 
3 458 457 464 
3 464 465 458 
3 466 458 465 
3 458 466 459 
3 467 459 466 
3 459 467 460 
3 468 460 467 
3 460 468 461 
3 462 461 468 
3 461 462 455 
3 470 462 469 
3 462 470 463 
3 464 463 470 
3 470 471 464 
3 472 464 471 
3 464 472 465 
3 466 465 472 
3 472 473 466 
3 474 466 473 
3 466 474 467 
3 475 467 474 
3 467 475 468 
3 469 468 475 
3 468 469 462 
3 454 447 477 
3 476 477 447 
3 448 454 477 
3 477 478 448 
3 449 448 478 
3 478 479 449 
3 450 449 479 
3 479 480 450 
3 481 450 480 
3 450 481 451 
3 482 451 481 
3 451 482 452 
3 447 452 482 
3 482 476 447 
3 484 476 483 
3 476 484 477 
3 478 477 484 
3 484 485 478 
3 486 478 485 
3 478 486 479 
3 480 479 486 
3 486 487 480 
3 481 487 488 
3 487 481 480 
3 482 481 489 
3 488 489 481 
3 476 482 489 
3 489 483 476 
3 484 483 490 
3 490 491 484 
3 485 484 491 
3 491 492 485 
3 493 485 492 
3 485 493 486 
3 487 486 493 
3 493 494 487 
3 495 487 494 
3 487 495 488 
3 496 488 495 
3 488 496 489 
3 483 489 490 
3 496 490 489 
3 498 490 497 
3 490 498 491 
3 492 491 498 
3 498 499 492 
3 500 492 499 
3 492 500 493 
3 501 493 500 
3 493 501 494 
3 502 494 501 
3 494 502 495 
3 496 495 502 
3 502 503 496 
3 497 496 503 
3 496 497 490 
3 498 497 504 
3 504 505 498 
3 498 505 506 
3 506 499 498 
3 500 499 506 
3 506 507 500 
3 501 500 508 
3 507 508 500 
3 509 501 508 
3 501 509 502 
3 532 531 535 
3 536 535 531 
3 533 532 535 
3 535 534 533 
3 512 469 511 
3 469 512 470 
3 471 470 512 
3 512 513 471 
3 514 471 513 
3 471 514 472 
3 515 472 514 
3 472 515 473 
3 516 473 515 
3 473 516 474 
3 517 474 516 
3 474 517 475 
3 511 475 517 
3 475 511 469 
3 511 517 518 
3 511 519 512 
3 520 512 519 
3 512 520 513 
3 514 513 520 
3 520 521 514 
3 522 514 521 
3 514 522 515 
3 523 515 522 
3 515 523 516 
3 517 516 523 
3 523 524 517 
3 518 517 524 
3 518 519 511 
3 502 525 526 
3 502 526 503 
3 527 503 526 
3 503 527 497 
3 528 497 527 
3 497 528 504 
3 529 537 546 
3 537 529 510 
3 542 510 529 
3 510 542 541 
3 525 509 530 
3 525 502 509 
3 532 525 531 
3 525 532 526 
3 533 526 532 
3 526 533 527 
3 528 533 534 
3 533 528 527 
3 529 546 545 
3 545 544 529 
3 543 529 544 
3 529 543 542 
3 531 530 536 
3 530 531 525 
3 505 538 506 
3 505 504 537 
3 505 537 538 
3 507 506 539 
3 538 539 506 
3 508 507 539 
3 539 540 508 
3 509 508 540 
3 540 541 509 
3 542 509 541 
3 509 542 530 
3 536 530 542 
3 542 543 536 
3 535 536 543 
3 543 544 535 
3 545 535 544 
3 535 545 534 
3 546 534 545 
3 534 546 528 
3 537 528 546 
3 528 537 504 
3 548 518 547 
3 518 548 519 
3 549 519 548 
3 519 549 520 
3 521 520 549 
3 549 550 521 
3 522 521 550 
3 550 551 522 
3 523 522 551 
3 551 552 523 
3 570 569 553 
3 576 553 569 
3 572 553 573 
3 553 572 571 
3 555 547 554 
3 547 555 548 
3 556 548 555 
3 548 556 549 
3 550 549 556 
3 556 557 550 
3 550 557 551 
3 558 551 557 
3 552 551 558 
3 558 559 552 
3 574 576 575 
3 576 574 553 
3 573 553 574 
3 553 571 570 
3 562 523 561 
3 523 562 524 
3 518 524 562 
3 562 563 518 
3 547 518 563 
3 563 564 547 
3 554 564 565 
3 564 554 547 
3 566 554 565 
3 554 566 560 
3 567 560 566 
3 560 567 559 
3 568 559 567 
3 559 568 552 
3 561 552 568 
3 552 561 523 
3 562 561 569 
3 569 570 562 
3 571 562 570 
3 562 571 563 
3 564 563 571 
3 571 572 564 
3 573 564 572 
3 564 573 565 
3 566 565 573 
3 573 574 566 
3 575 566 574 
3 566 575 567 
3 576 567 575 
3 567 576 568 
3 569 568 576 
3 568 569 561 
3 397 96 248 
3 248 578 397 
3 577 397 578 
3 577 105 434 
3 578 248 250 
3 250 579 578 
3 577 578 579 
3 579 580 577 
3 577 580 105 
3 579 250 581 
3 253 581 250 
3 580 579 581 
3 581 582 580 
3 256 580 582 
3 580 256 105 
3 581 253 583 
3 257 583 253 
3 584 581 583 
3 581 584 582 
3 256 582 260 
3 584 260 582 
3 583 257 261 
3 261 585 583 
3 586 583 585 
3 583 586 584 
3 260 584 586 
3 586 264 260 
3 586 585 265 
3 265 264 586 
3 588 266 267 
3 266 588 587 
3 589 267 268 
3 267 589 588 
3 590 268 269 
3 268 590 589 
3 592 587 588 
3 587 592 591 
3 593 588 589 
3 588 593 592 
3 594 589 590 
3 589 594 593 
3 279 278 595 
3 595 596 279 
3 280 279 596 
3 596 597 280 
3 281 280 597 
3 597 598 281 
3 600 595 599 
3 595 600 596 
3 601 596 600 
3 596 601 597 
3 598 597 601 
3 601 602 598 
3 590 269 290 
3 290 603 590 
3 590 603 604 
3 604 594 590 
3 608 290 296 
3 290 608 603 
3 604 603 608 
3 608 609 604 
3 608 296 281 
3 281 598 608 
3 602 608 598 
3 608 602 609 
3 593 594 604 
3 604 605 593 
3 592 593 605 
3 605 606 592 
3 607 592 606 
3 592 607 591 
3 605 604 609 
3 609 610 605 
3 606 605 610 
3 610 611 606 
3 612 606 611 
3 606 612 607 
3 610 602 601 
3 602 610 609 
3 600 610 601 
3 610 600 611 
3 612 611 600 
3 600 599 612 
3 613 278 302 
3 278 613 595 
3 614 595 613 
3 595 614 599 
3 615 302 305 
3 302 615 613 
3 616 613 615 
3 613 616 614 
3 615 305 308 
3 308 617 615 
3 616 615 617 
3 617 618 616 
3 308 311 619 
3 619 617 308 
3 617 620 618 
3 620 617 619 
3 599 621 628 
3 621 599 614 
3 614 616 622 
3 622 621 614 
3 671 662 661 
3 662 671 670 
3 623 620 624 
3 620 623 618 
3 628 621 625 
3 625 629 628 
3 622 625 621 
3 626 607 627 
3 607 626 591 
3 627 612 628 
3 612 627 607 
3 599 628 612 
3 626 627 630 
3 630 652 626 
3 627 628 629 
3 629 630 627 
3 324 587 631 
3 587 324 266 
3 631 591 632 
3 591 631 587 
3 632 626 633 
3 626 632 591 
3 633 652 651 
3 652 633 626 
3 328 631 634 
3 631 328 324 
3 634 632 635 
3 632 634 631 
3 328 636 331 
3 636 328 634 
3 634 635 636 
3 637 636 635 
3 636 334 331 
3 334 636 638 
3 636 637 638 
3 639 638 637 
3 635 633 640 
3 633 635 632 
3 641 635 640 
3 635 641 637 
3 639 637 643 
3 641 643 637 
3 339 638 642 
3 638 339 334 
3 642 639 643 
3 639 642 638 
3 649 633 651 
3 633 649 640 
3 641 640 649 
3 649 647 641 
3 645 641 647 
3 641 645 643 
3 342 642 644 
3 642 342 339 
3 644 643 645 
3 643 644 642 
3 345 644 646 
3 644 345 342 
3 646 645 647 
3 645 646 644 
3 345 646 648 
3 648 348 345 
3 646 647 649 
3 649 648 646 
3 351 648 650 
3 648 351 348 
3 650 649 651 
3 649 650 648 
3 650 354 351 
3 354 651 652 
3 651 354 650 
3 652 630 657 
3 657 653 652 
3 653 354 652 
3 354 653 356 
3 654 657 660 
3 657 654 653 
3 358 653 654 
3 653 358 356 
3 656 625 655 
3 625 656 629 
3 630 656 657 
3 656 630 629 
3 656 655 658 
3 658 659 656 
3 658 655 623 
3 623 624 658 
3 660 656 659 
3 656 660 657 
3 618 661 662 
3 662 616 618 
3 616 663 622 
3 616 670 663 
3 616 662 670 
3 664 622 663 
3 622 664 623 
3 623 671 618 
3 661 618 671 
3 623 664 671 
3 311 370 619 
3 620 619 370 
3 370 665 620 
3 666 620 665 
3 620 666 624 
3 658 624 666 
3 666 668 658 
3 660 667 654 
3 115 654 667 
3 654 115 358 
3 669 658 668 
3 658 669 659 
3 667 659 669 
3 659 667 660 
3 671 663 670 
3 663 671 664 
3 622 655 625 
3 655 622 623 
3 443 414 672 
3 414 443 408 
3 668 672 446 
3 443 668 666 
