ply
format ascii 1.0
comment VCGLIB generated
element vertex 26
property float x
property float y
property float z
property float nx
property float ny
property float nz
element face 12
property list uchar int vertex_indices
end_header
1 1 1 3.97914e-007 1.5708 3.97914e-007 
1 1 0 0 1.5708 7.95827e-007 
0 1 0 3.97914e-007 1.5708 3.97914e-007 
0 1 1 7.95827e-007 1.5708 0 
0 0 0 -1.5708 0 0 
0 0 1 -1.5708 0 0 
0 1 1 -1.5708 0 0 
0 1 0 -1.5708 0 0 
1 0 0 0 -1.5708 0 
1 0 1 0 -1.5708 0 
0 0 0 0 -1.5708 0 
0 0 1 0 -1.5708 0 
1 1 0 1.5708 0 0 
1 1 1 0.785398 0 0 
1 0 0 0.785398 0 0 
1 1 1 0.785398 -3.97914e-007 3.97914e-007 
1 0 1 1.5708 -7.95828e-007 7.95827e-007 
1 0 0 0.785398 -3.97914e-007 3.97914e-007 
1 1 1 0 0 1.5708 
0 1 1 0 0 1.5708 
1 0 1 0 0 1.5708 
0 0 1 0 0 1.5708 
1 1 0 0 0 -1.5708 
1 0 0 0 0 -1.5708 
0 0 0 0 0 -1.5708 
0 1 0 0 0 -1.5708 
3 0 1 2 
3 0 2 3 
3 4 5 6 
3 4 6 7 
3 8 9 10 
3 9 11 10 
3 12 13 14 
3 15 16 17 
3 18 19 20 
3 19 21 20 
3 22 23 24 
3 22 24 25 
