ply
format ascii 1.0
comment VCGLIB generated
element vertex 242
property float x
property float y
property float z
property float nx
property float ny
property float nz
element face 480
property list uchar int vertex_indices
end_header
50 2.18557e-006 -50 1.5708 1.5708 -1.5708 
40 2.18557e-006 -50 0 3.14159 -3.14159 
40 1.74846e-006 -40 0 6.28319 2.74648e-007 
50 1.74846e-006 -40 3.14159 3.14159 1.37324e-007 
-40 -1.74846e-006 40 0 6.28319 2.74648e-007 
-50 -2.18557e-006 50 -1.5708 1.5708 1.5708 
-40 -2.18557e-006 50 0 3.14159 3.14159 
-30 -1.31134e-006 30 0 6.28319 2.74648e-007 
-30 -1.74846e-006 40 0 6.28319 2.74648e-007 
-20 -8.74228e-007 20 0 6.28319 2.74646e-007 
-20 -1.31134e-006 30 0 6.28319 2.74648e-007 
-10 -4.37114e-007 10 0 6.28319 2.74647e-007 
-10 -8.74228e-007 20 0 6.28319 2.74646e-007 
0 0 0 0 6.28319 2.74647e-007 
0 -4.37114e-007 10 0 6.28319 2.74647e-007 
10 4.37114e-007 -10 0 6.28319 2.74647e-007 
10 0 0 0 6.28319 2.74647e-007 
20 8.74228e-007 -20 0 6.28319 2.74646e-007 
20 4.37114e-007 -10 0 6.28319 2.74647e-007 
30 1.31134e-006 -30 0 6.28319 2.74648e-007 
30 8.74228e-007 -20 0 6.28319 2.74646e-007 
40 1.31134e-006 -30 0 6.28319 2.74648e-007 
-30 -2.18557e-006 50 0 3.14159 3.14159 
-20 -1.74846e-006 40 0 6.28319 2.74648e-007 
-20 -2.18557e-006 50 0 3.14159 3.14159 
-10 -1.31134e-006 30 0 6.28319 2.74648e-007 
-10 -1.74846e-006 40 0 6.28319 2.74648e-007 
-10 -2.18557e-006 50 0 3.14159 3.14159 
0 -8.74228e-007 20 0 6.28319 2.74646e-007 
0 -1.31134e-006 30 0 6.28319 2.74648e-007 
0 -1.74846e-006 40 0 6.28319 2.74648e-007 
0 -2.18557e-006 50 0 3.14159 3.14159 
10 -4.37114e-007 10 0 6.28319 2.74647e-007 
10 -8.74228e-007 20 0 6.28319 2.74646e-007 
10 -1.31134e-006 30 0 6.28319 2.74648e-007 
10 -1.74846e-006 40 0 6.28319 2.74648e-007 
10 -2.18557e-006 50 0 3.14159 3.14159 
20 0 0 0 6.28319 2.74647e-007 
20 -4.37114e-007 10 0 6.28319 2.74647e-007 
20 -8.74228e-007 20 0 6.28319 2.74646e-007 
20 -1.31134e-006 30 0 6.28319 2.74648e-007 
20 -1.74846e-006 40 0 6.28319 2.74648e-007 
20 -2.18557e-006 50 0 3.14159 3.14159 
30 4.37114e-007 -10 0 6.28319 2.74647e-007 
30 0 0 0 6.28319 2.74647e-007 
30 -4.37114e-007 10 0 6.28319 2.74647e-007 
30 -8.74228e-007 20 0 6.28319 2.74646e-007 
30 -1.31134e-006 30 0 6.28319 2.74648e-007 
30 -1.74846e-006 40 0 6.28319 2.74648e-007 
30 -2.18557e-006 50 0 3.14159 3.14159 
40 8.74228e-007 -20 0 6.28319 2.74646e-007 
40 4.37114e-007 -10 0 6.28319 2.74647e-007 
40 0 0 0 6.28319 2.74647e-007 
40 -4.37114e-007 10 0 6.28319 2.74647e-007 
40 -8.74228e-007 20 0 6.28319 2.74646e-007 
40 -1.31134e-006 30 0 6.28319 2.74648e-007 
40 -1.74846e-006 40 0 6.28319 2.74648e-007 
40 -2.18557e-006 50 0 3.14159 3.14159 
50 1.31134e-006 -30 3.14159 3.14159 1.37324e-007 
50 8.74228e-007 -20 3.14159 3.14159 1.37323e-007 
50 4.37114e-007 -10 3.14159 3.14159 1.37323e-007 
50 0 0 3.14159 3.14159 1.37323e-007 
50 -4.37114e-007 10 3.14159 3.14159 1.37323e-007 
50 -8.74228e-007 20 3.14159 3.14159 1.37323e-007 
50 -1.31134e-006 30 3.14159 3.14159 1.37324e-007 
50 -1.74846e-006 40 3.14159 3.14159 1.37324e-007 
50 -2.18557e-006 50 1.5708 1.5708 1.5708 
-40 2.18557e-006 -50 0 3.14159 -3.14159 
-50 2.18557e-006 -50 -1.5708 1.5708 -1.5708 
-50 1.74846e-006 -40 -3.14159 3.14159 1.37324e-007 
-30 2.18557e-006 -50 0 3.14159 -3.14159 
-40 1.74846e-006 -40 0 6.28319 2.74647e-007 
-20 2.18557e-006 -50 0 3.14159 -3.14159 
-30 1.74846e-006 -40 0 6.28319 2.74647e-007 
-10 2.18557e-006 -50 0 3.14159 -3.14159 
-20 1.74846e-006 -40 0 6.28319 2.74647e-007 
0 2.18557e-006 -50 0 3.14159 -3.14159 
-10 1.74846e-006 -40 0 6.28319 2.74647e-007 
10 2.18557e-006 -50 0 3.14159 -3.14159 
0 1.74846e-006 -40 0 6.28319 2.74647e-007 
20 2.18557e-006 -50 0 3.14159 -3.14159 
10 1.74846e-006 -40 0 6.28319 2.74647e-007 
30 2.18557e-006 -50 0 3.14159 -3.14159 
20 1.74846e-006 -40 0 6.28319 2.74647e-007 
30 1.74846e-006 -40 0 6.28319 2.74647e-007 
-50 1.31134e-006 -30 -3.14159 3.14159 1.37324e-007 
-40 1.31134e-006 -30 0 6.28319 2.74648e-007 
-50 8.74228e-007 -20 -3.14159 3.14159 1.37323e-007 
-30 1.31134e-006 -30 0 6.28319 2.74648e-007 
-40 8.74228e-007 -20 0 6.28319 2.74646e-007 
-50 4.37114e-007 -10 -3.14159 3.14159 1.37323e-007 
-20 1.31134e-006 -30 0 6.28319 2.74648e-007 
-30 8.74228e-007 -20 0 6.28319 2.74646e-007 
-40 4.37114e-007 -10 0 6.28319 2.74647e-007 
-50 0 0 -3.14159 3.14159 1.37323e-007 
-10 1.31134e-006 -30 0 6.28319 2.74648e-007 
-20 8.74228e-007 -20 0 6.28319 2.74646e-007 
-30 4.37114e-007 -10 0 6.28319 2.74647e-007 
-40 0 0 0 6.28319 2.74647e-007 
-50 -4.37114e-007 10 -3.14159 3.14159 1.37323e-007 
0 1.31134e-006 -30 0 6.28319 2.74648e-007 
-10 8.74228e-007 -20 0 6.28319 2.74646e-007 
-20 4.37114e-007 -10 0 6.28319 2.74647e-007 
-30 0 0 0 6.28319 2.74647e-007 
-40 -4.37114e-007 10 0 6.28319 2.74647e-007 
-50 -8.74228e-007 20 -3.14159 3.14159 1.37323e-007 
10 1.31134e-006 -30 0 6.28319 2.74648e-007 
0 8.74228e-007 -20 0 6.28319 2.74646e-007 
-10 4.37114e-007 -10 0 6.28319 2.74647e-007 
-20 0 0 0 6.28319 2.74647e-007 
-30 -4.37114e-007 10 0 6.28319 2.74647e-007 
-40 -8.74228e-007 20 0 6.28319 2.74646e-007 
-50 -1.31134e-006 30 -3.14159 3.14159 1.37324e-007 
20 1.31134e-006 -30 0 6.28319 2.74648e-007 
10 8.74228e-007 -20 0 6.28319 2.74646e-007 
0 4.37114e-007 -10 0 6.28319 2.74647e-007 
-10 0 0 0 6.28319 2.74647e-007 
-20 -4.37114e-007 10 0 6.28319 2.74647e-007 
-30 -8.74228e-007 20 0 6.28319 2.74646e-007 
-40 -1.31134e-006 30 0 6.28319 2.74648e-007 
-50 -1.74846e-006 40 -3.14159 3.14159 1.37324e-007 
50 -0.999998 -50 1.5708 -1.5708 -1.5708 
40 -0.999998 -40 0 -6.28319 -3.18331e-007 
40 -0.999998 -50 0 -3.14159 -3.14159 
50 -0.999998 -40 3.14159 -3.14159 -1.59165e-007 
-40 -1 40 0 -6.28319 0 
-40 -1 50 0 -3.14159 3.14159 
-50 -1 50 -1.5708 -1.5708 1.5708 
-30 -1 30 0 -6.28319 0 
-30 -1 40 0 -6.28319 0 
-20 -1 20 0 -6.28319 0 
-20 -1 30 0 -6.28319 0 
-10 -1 10 0 -6.28319 0 
-10 -1 20 0 -6.28319 0 
0 -1 -4.37114e-008 0 -6.28319 0 
0 -1 10 0 -6.28319 0 
10 -1 -10 0 -6.28319 -3.18331e-007 
10 -1 -4.37114e-008 0 -6.28319 0 
20 -0.999999 -20 0 -6.28319 -3.18331e-007 
20 -1 -10 0 -6.28319 -3.18331e-007 
30 -0.999999 -30 0 -6.28319 -3.18331e-007 
30 -0.999999 -20 0 -6.28319 -3.18331e-007 
40 -0.999999 -30 0 -6.28319 -3.18331e-007 
-30 -1 50 0 -3.14159 3.14159 
-20 -1 40 0 -6.28319 0 
-20 -1 50 0 -3.14159 3.14159 
-10 -1 30 0 -6.28319 0 
-10 -1 40 0 -6.28319 0 
-10 -1 50 0 -3.14159 3.14159 
0 -1 20 0 -6.28319 0 
0 -1 30 0 -6.28319 0 
0 -1 40 0 -6.28319 0 
0 -1 50 0 -3.14159 3.14159 
10 -1 10 0 -6.28319 0 
10 -1 20 0 -6.28319 0 
10 -1 30 0 -6.28319 0 
10 -1 40 0 -6.28319 0 
10 -1 50 0 -3.14159 3.14159 
20 -1 -4.37114e-008 0 -6.28319 0 
20 -1 10 0 -6.28319 0 
20 -1 20 0 -6.28319 0 
20 -1 30 0 -6.28319 0 
20 -1 40 0 -6.28319 0 
20 -1 50 0 -3.14159 3.14159 
30 -1 -10 0 -6.28319 -3.18331e-007 
30 -1 -4.37114e-008 0 -6.28319 0 
30 -1 10 0 -6.28319 0 
30 -1 20 0 -6.28319 0 
30 -1 30 0 -6.28319 0 
30 -1 40 0 -6.28319 0 
30 -1 50 0 -3.14159 3.14159 
40 -0.999999 -20 0 -6.28319 -3.18331e-007 
40 -1 -10 0 -6.28319 -3.18331e-007 
40 -1 -4.37114e-008 0 -6.28319 0 
40 -1 10 0 -6.28319 0 
40 -1 20 0 -6.28319 0 
40 -1 30 0 -6.28319 0 
40 -1 40 0 -6.28319 0 
40 -1 50 0 -3.14159 3.14159 
50 -0.999999 -30 3.14159 -3.14159 -1.59165e-007 
50 -0.999999 -20 3.14159 -3.14159 -1.59165e-007 
50 -1 -10 3.14159 -3.14159 -1.59165e-007 
50 -1 -4.37114e-008 3.14159 -3.14159 0 
50 -1 10 3.14159 -3.14159 0 
50 -1 20 3.14159 -3.14159 0 
50 -1 30 3.14159 -3.14159 0 
50 -1 40 3.14159 -3.14159 0 
50 -1 50 1.5708 -1.5708 1.5708 
-40 -0.999998 -50 0 -3.14159 -3.14159 
-50 -0.999998 -40 -3.14159 -3.14159 -1.59165e-007 
-50 -0.999998 -50 -1.5708 -1.5708 -1.5708 
-30 -0.999998 -50 0 -3.14159 -3.14159 
-40 -0.999998 -40 0 -6.28319 -3.18331e-007 
-20 -0.999998 -50 0 -3.14159 -3.14159 
-30 -0.999998 -40 0 -6.28319 -3.18331e-007 
-10 -0.999998 -50 0 -3.14159 -3.14159 
-20 -0.999998 -40 0 -6.28319 -3.18331e-007 
0 -0.999998 -50 0 -3.14159 -3.14159 
-10 -0.999998 -40 0 -6.28319 -3.18331e-007 
10 -0.999998 -50 0 -3.14159 -3.14159 
0 -0.999998 -40 0 -6.28319 -3.18331e-007 
20 -0.999998 -50 0 -3.14159 -3.14159 
10 -0.999998 -40 0 -6.28319 -3.18331e-007 
30 -0.999998 -50 0 -3.14159 -3.14159 
20 -0.999998 -40 0 -6.28319 -3.18331e-007 
30 -0.999998 -40 0 -6.28319 -3.18331e-007 
-50 -0.999999 -30 -3.14159 -3.14159 -1.59165e-007 
-40 -0.999999 -30 0 -6.28319 -3.18331e-007 
-50 -0.999999 -20 -3.14159 -3.14159 -1.59165e-007 
-30 -0.999999 -30 0 -6.28319 -3.18331e-007 
-40 -0.999999 -20 0 -6.28319 -3.18331e-007 
-50 -1 -10 -3.14159 -3.14159 -1.59165e-007 
-20 -0.999999 -30 0 -6.28319 -3.18331e-007 
-30 -0.999999 -20 0 -6.28319 -3.18331e-007 
-40 -1 -10 0 -6.28319 -3.18331e-007 
-50 -1 -4.37114e-008 -3.14159 -3.14159 0 
-10 -0.999999 -30 0 -6.28319 -3.18331e-007 
-20 -0.999999 -20 0 -6.28319 -3.18331e-007 
-30 -1 -10 0 -6.28319 -3.18331e-007 
-40 -1 -4.37114e-008 0 -6.28319 0 
-50 -1 10 -3.14159 -3.14159 0 
0 -0.999999 -30 0 -6.28319 -3.18331e-007 
-10 -0.999999 -20 0 -6.28319 -3.18331e-007 
-20 -1 -10 0 -6.28319 -3.18331e-007 
-30 -1 -4.37114e-008 0 -6.28319 0 
-40 -1 10 0 -6.28319 0 
-50 -1 20 -3.14159 -3.14159 0 
10 -0.999999 -30 0 -6.28319 -3.18331e-007 
0 -0.999999 -20 0 -6.28319 -3.18331e-007 
-10 -1 -10 0 -6.28319 -3.18331e-007 
-20 -1 -4.37114e-008 0 -6.28319 0 
-30 -1 10 0 -6.28319 0 
-40 -1 20 0 -6.28319 0 
-50 -1 30 -3.14159 -3.14159 0 
20 -0.999999 -30 0 -6.28319 -3.18331e-007 
10 -0.999999 -20 0 -6.28319 -3.18331e-007 
0 -1 -10 0 -6.28319 -3.18331e-007 
-10 -1 -4.37114e-008 0 -6.28319 0 
-20 -1 10 0 -6.28319 0 
-30 -1 20 0 -6.28319 0 
-40 -1 30 0 -6.28319 0 
-50 -1 40 -3.14159 -3.14159 0 
3 0 1 2 
3 0 2 3 
3 4 5 6 
3 7 4 8 
3 9 7 10 
3 11 9 12 
3 13 11 14 
3 15 13 16 
3 17 15 18 
3 19 17 20 
3 2 19 21 
3 4 6 8 
3 8 6 22 
3 7 8 10 
3 10 8 23 
3 8 22 23 
3 23 22 24 
3 9 10 12 
3 12 10 25 
3 10 23 25 
3 25 23 26 
3 23 24 26 
3 26 24 27 
3 11 12 14 
3 14 12 28 
3 12 25 28 
3 28 25 29 
3 25 26 29 
3 29 26 30 
3 26 27 30 
3 30 27 31 
3 13 14 16 
3 16 14 32 
3 14 28 32 
3 32 28 33 
3 28 29 33 
3 33 29 34 
3 29 30 34 
3 34 30 35 
3 30 31 35 
3 35 31 36 
3 15 16 18 
3 18 16 37 
3 16 32 37 
3 37 32 38 
3 32 33 38 
3 38 33 39 
3 33 34 39 
3 39 34 40 
3 34 35 40 
3 40 35 41 
3 35 36 41 
3 41 36 42 
3 17 18 20 
3 20 18 43 
3 18 37 43 
3 43 37 44 
3 37 38 44 
3 44 38 45 
3 38 39 45 
3 45 39 46 
3 39 40 46 
3 46 40 47 
3 40 41 47 
3 47 41 48 
3 41 42 48 
3 48 42 49 
3 19 20 21 
3 21 20 50 
3 20 43 50 
3 50 43 51 
3 43 44 51 
3 51 44 52 
3 44 45 52 
3 52 45 53 
3 45 46 53 
3 53 46 54 
3 46 47 54 
3 54 47 55 
3 47 48 55 
3 55 48 56 
3 48 49 56 
3 56 49 57 
3 2 21 3 
3 3 21 58 
3 21 50 58 
3 58 50 59 
3 50 51 59 
3 59 51 60 
3 51 52 60 
3 60 52 61 
3 52 53 61 
3 61 53 62 
3 53 54 62 
3 62 54 63 
3 54 55 63 
3 63 55 64 
3 55 56 64 
3 64 56 65 
3 56 57 65 
3 65 57 66 
3 67 68 69 
3 70 67 71 
3 72 70 73 
3 74 72 75 
3 76 74 77 
3 78 76 79 
3 80 78 81 
3 82 80 83 
3 1 82 84 
3 67 69 71 
3 71 69 85 
3 70 71 73 
3 73 71 86 
3 71 85 86 
3 86 85 87 
3 72 73 75 
3 75 73 88 
3 73 86 88 
3 88 86 89 
3 86 87 89 
3 89 87 90 
3 74 75 77 
3 77 75 91 
3 75 88 91 
3 91 88 92 
3 88 89 92 
3 92 89 93 
3 89 90 93 
3 93 90 94 
3 76 77 79 
3 79 77 95 
3 77 91 95 
3 95 91 96 
3 91 92 96 
3 96 92 97 
3 92 93 97 
3 97 93 98 
3 93 94 98 
3 98 94 99 
3 78 79 81 
3 81 79 100 
3 79 95 100 
3 100 95 101 
3 95 96 101 
3 101 96 102 
3 96 97 102 
3 102 97 103 
3 97 98 103 
3 103 98 104 
3 98 99 104 
3 104 99 105 
3 80 81 83 
3 83 81 106 
3 81 100 106 
3 106 100 107 
3 100 101 107 
3 107 101 108 
3 101 102 108 
3 108 102 109 
3 102 103 109 
3 109 103 110 
3 103 104 110 
3 110 104 111 
3 104 105 111 
3 111 105 112 
3 82 83 84 
3 84 83 113 
3 83 106 113 
3 113 106 114 
3 106 107 114 
3 114 107 115 
3 107 108 115 
3 115 108 116 
3 108 109 116 
3 116 109 117 
3 109 110 117 
3 117 110 118 
3 110 111 118 
3 118 111 119 
3 111 112 119 
3 119 112 120 
3 1 84 2 
3 2 84 19 
3 84 113 19 
3 19 113 17 
3 113 114 17 
3 17 114 15 
3 114 115 15 
3 15 115 13 
3 115 116 13 
3 13 116 11 
3 116 117 11 
3 11 117 9 
3 117 118 9 
3 9 118 7 
3 118 119 7 
3 7 119 4 
3 119 120 4 
3 4 120 5 
3 121 122 123 
3 121 124 122 
3 125 126 127 
3 128 129 125 
3 130 131 128 
3 132 133 130 
3 134 135 132 
3 136 137 134 
3 138 139 136 
3 140 141 138 
3 122 142 140 
3 125 129 126 
3 129 143 126 
3 128 131 129 
3 131 144 129 
3 129 144 143 
3 144 145 143 
3 130 133 131 
3 133 146 131 
3 131 146 144 
3 146 147 144 
3 144 147 145 
3 147 148 145 
3 132 135 133 
3 135 149 133 
3 133 149 146 
3 149 150 146 
3 146 150 147 
3 150 151 147 
3 147 151 148 
3 151 152 148 
3 134 137 135 
3 137 153 135 
3 135 153 149 
3 153 154 149 
3 149 154 150 
3 154 155 150 
3 150 155 151 
3 155 156 151 
3 151 156 152 
3 156 157 152 
3 136 139 137 
3 139 158 137 
3 137 158 153 
3 158 159 153 
3 153 159 154 
3 159 160 154 
3 154 160 155 
3 160 161 155 
3 155 161 156 
3 161 162 156 
3 156 162 157 
3 162 163 157 
3 138 141 139 
3 141 164 139 
3 139 164 158 
3 164 165 158 
3 158 165 159 
3 165 166 159 
3 159 166 160 
3 166 167 160 
3 160 167 161 
3 167 168 161 
3 161 168 162 
3 168 169 162 
3 162 169 163 
3 169 170 163 
3 140 142 141 
3 142 171 141 
3 141 171 164 
3 171 172 164 
3 164 172 165 
3 172 173 165 
3 165 173 166 
3 173 174 166 
3 166 174 167 
3 174 175 167 
3 167 175 168 
3 175 176 168 
3 168 176 169 
3 176 177 169 
3 169 177 170 
3 177 178 170 
3 122 124 142 
3 124 179 142 
3 142 179 171 
3 179 180 171 
3 171 180 172 
3 180 181 172 
3 172 181 173 
3 181 182 173 
3 173 182 174 
3 182 183 174 
3 174 183 175 
3 183 184 175 
3 175 184 176 
3 184 185 176 
3 176 185 177 
3 185 186 177 
3 177 186 178 
3 186 187 178 
3 188 189 190 
3 191 192 188 
3 193 194 191 
3 195 196 193 
3 197 198 195 
3 199 200 197 
3 201 202 199 
3 203 204 201 
3 123 205 203 
3 188 192 189 
3 192 206 189 
3 191 194 192 
3 194 207 192 
3 192 207 206 
3 207 208 206 
3 193 196 194 
3 196 209 194 
3 194 209 207 
3 209 210 207 
3 207 210 208 
3 210 211 208 
3 195 198 196 
3 198 212 196 
3 196 212 209 
3 212 213 209 
3 209 213 210 
3 213 214 210 
3 210 214 211 
3 214 215 211 
3 197 200 198 
3 200 216 198 
3 198 216 212 
3 216 217 212 
3 212 217 213 
3 217 218 213 
3 213 218 214 
3 218 219 214 
3 214 219 215 
3 219 220 215 
3 199 202 200 
3 202 221 200 
3 200 221 216 
3 221 222 216 
3 216 222 217 
3 222 223 217 
3 217 223 218 
3 223 224 218 
3 218 224 219 
3 224 225 219 
3 219 225 220 
3 225 226 220 
3 201 204 202 
3 204 227 202 
3 202 227 221 
3 227 228 221 
3 221 228 222 
3 228 229 222 
3 222 229 223 
3 229 230 223 
3 223 230 224 
3 230 231 224 
3 224 231 225 
3 231 232 225 
3 225 232 226 
3 232 233 226 
3 203 205 204 
3 205 234 204 
3 204 234 227 
3 234 235 227 
3 227 235 228 
3 235 236 228 
3 228 236 229 
3 236 237 229 
3 229 237 230 
3 237 238 230 
3 230 238 231 
3 238 239 231 
3 231 239 232 
3 239 240 232 
3 232 240 233 
3 240 241 233 
3 123 122 205 
3 122 140 205 
3 205 140 234 
3 140 138 234 
3 234 138 235 
3 138 136 235 
3 235 136 236 
3 136 134 236 
3 236 134 237 
3 134 132 237 
3 237 132 238 
3 132 130 238 
3 238 130 239 
3 130 128 239 
3 239 128 240 
3 128 125 240 
3 240 125 241 
3 125 127 241 
3 1 203 82 
3 94 220 99 
3 31 157 36 
3 3 121 0 
3 90 215 94 
3 27 152 31 
3 58 124 3 
3 87 211 90 
3 24 148 27 
3 59 179 58 
3 85 208 87 
3 22 145 24 
3 60 180 59 
3 69 206 85 
3 6 143 22 
3 68 189 69 
3 61 181 60 
3 67 190 68 
3 0 123 1 
3 62 182 61 
3 70 188 67 
3 66 186 65 
3 63 183 62 
3 72 191 70 
3 5 126 6 
3 64 184 63 
3 74 193 72 
3 65 185 64 
3 76 195 74 
3 120 127 5 
3 57 187 66 
3 78 197 76 
3 112 241 120 
3 49 178 57 
3 80 199 78 
3 105 233 112 
3 42 170 49 
3 82 201 80 
3 99 226 105 
3 36 163 42 
3 1 123 203 
3 94 215 220 
3 31 152 157 
3 3 124 121 
3 90 211 215 
3 27 148 152 
3 58 179 124 
3 87 208 211 
3 24 145 148 
3 59 180 179 
3 85 206 208 
3 22 143 145 
3 60 181 180 
3 69 189 206 
3 6 126 143 
3 68 190 189 
3 61 182 181 
3 67 188 190 
3 0 121 123 
3 62 183 182 
3 70 191 188 
3 66 187 186 
3 63 184 183 
3 72 193 191 
3 5 127 126 
3 64 185 184 
3 74 195 193 
3 65 186 185 
3 76 197 195 
3 120 241 127 
3 57 178 187 
3 78 199 197 
3 112 233 241 
3 49 170 178 
3 80 201 199 
3 105 226 233 
3 42 163 170 
3 82 203 201 
3 99 220 226 
3 36 157 163 
